<?xml version="1.0" encoding="utf-8"?>

<!DOCTYPE svg PUBLIC "-//W3C//DTD SVG 1.1//EN" "http://www.w3.org/Graphics/SVG/1.1/DTD/svg11.dtd">
<svg version="1.1" id="Layer_1" xmlns="http://www.w3.org/2000/svg" xmlns:xlink="http://www.w3.org/1999/xlink" x="0px" y="0px"
	 viewBox="0 0 1222.165 1683.897" enable-background="new 0 0 1222.165 1683.897" xml:space="preserve">
<g>
	<path fill="#006A4E" d="M296.325,1351.263c0.338-5.436-2.178-7.066-4.786-10.825c-0.573-0.826-1.629-2.883-2.47-3.402
		c-2.087-1.287,3.657-8.46-3.088-7.422c-3.844,0.591,2.098,10.926,2.625,12.371c1.077,2.958,2.506,6.492,1.698,9.897
		c-0.81,3.413-3.551,5.765-3.551,9.587c0,3.25,8.905,12.732,11.425,15.464c1.886,2.044,7.476,4.485,10.19,4.485
		c8.555,0-0.457-10.922-2.934-13.144c-5.273-4.731-11.733-3.433-11.733-12.526L296.325,1351.263L296.325,1351.263z
		 M365.338,1339.975c-1.324,0.611-6.398,1.04-6.793,2.629c-2.091,0.523-6.076,8.284-3.551,9.124c0,0.548,0.786,1.264,0.926,1.856
		c0.299,1.255-0.747,7.071,0.308,7.422v0.31l0.155,0.154c2.76,0,3.551-1.665,3.551-4.175c0-1.479,0.28-5.329,1.853-5.722v-0.309
		c0.284-0.071,0.238-0.025,0.309-0.309c0.735-0.183,1.084-1.277,1.544-1.392c0-2.018,1.853-3.677,1.853-6.031L365.338,1339.975
		L365.338,1339.975z M419.839,1355.902c-2.345,0.503-6.582-3.624-8.337-5.257c-4.533-4.215-2.864,2.898-2.162,5.103
		c0.748,2.349,2.984,5.712,1.853,8.041c-1.467,3.019-2.233,3.999-2.007,7.732c0.152,2.511,6.333,10.759,8.491,11.907
		c2.153,1.144,8.535,1.947,5.404-2.32c-1.937-2.638-3.55-5.894-4.169-9.123c-0.677-3.53,3.661-1.939,4.941-4.794
		c2.076-4.627,1.904-5.337-1.235-9.742L419.839,1355.902z M632.282,1297.913c-3.609,2.201-4.178,6.351-8.337,8.351
		c-4.738,2.277-11.734,3.361-11.734,10.051c0,10.509-9.109,16.326-9.109,26.598c0,5.474,1.75,7.461,7.256,6.65
		c5.268-0.777,6.315-5.172,10.345-7.422c7.03-3.926,25.166-13.695,25.166-22.886c0-4.693-2.201-9.22-3.242-13.608
		c-0.88-3.705,2.258-10.67-4.169-10.67L632.282,1297.913z M662.08,1265.285c-4.204,4.355-8.06,11.426-11.27,16.701
		c-2.173,3.571-4.75,6.58-6.793,10.052c-1.421,2.414,4.894,17.804,6.175,21.649c2.552,7.655,7.37-9.137,9.109-11.598
		c3.363-4.76,9.423-6.966,11.579-13.298c1.377-4.042,8.823-37.92-3.396-28.145L662.08,1265.285L662.08,1265.285z M674.894,1243.326
		c-2.147,0-4.551-0.209-5.867,1.701c-0.525,0.76,0,2.804,0,3.711c0,2.405-5.304,4.251-1.081,5.722
		c0.924,0.322,2.549,0.099,3.396,0.619c4.064,2.493,6.604-0.113,8.801-3.557c0.827-1.296,0.772-2.427,0.772-4.021
		c0-2.572-0.463-3.527-2.933-4.02L674.894,1243.326L674.894,1243.326z M683.231,1225.543c-1.491-0.257-1.344-0.509-2.161,0.309
		c-0.338,0.337-0.635,0.844-0.926,1.237c-0.529,0.712-1.022,1.82-1.235,2.629c-0.183,0.691-0.634,1.292-0.926,2.01
		c-0.162,0.396-0.359,2.525-0.154,2.938c0.575,1.154,3.576,0.608,4.323,0c0.445-0.361,1.068-1.399,1.39-2.01
		c0.635-1.21,0.615-2.943,0.309-4.176L683.231,1225.543L683.231,1225.543z M678.137,1309.82c-1.458-2.339-4.593-8.878-7.565-9.124
		c-3.85-0.319-2.438,5.123-3.705,7.268c-1.553,2.629-4.446,4.315-6.639,6.341c-3.381,3.124-8.652,9.568-10.036,14.072
		c-1.581,5.146,4.159,5.712,6.948,8.969c2.398,2.8,3.197,5.109,7.411,1.7c3.325-2.69,4.139-10.292,5.403-14.381
		c0.623-2.015,0.698-4.217,1.39-6.341c0.798-2.449,3.323-3.443,4.632-5.412L678.137,1309.82z M690.334,1316.006
		c-3.692-0.505-7.34-0.996-9.881,2.01c-1.347,1.594-1.081,7.1-1.081,9.124c0,2.54-1.544,4.568-1.544,7.113
		c1.79,0.298,2.827,1.252,4.94,0.31c3.622-1.614,3.884-5.024,6.021-8.042c1.191-1.683,5.282-6.345,7.411-6.649
		c0.107-0.431,0.359-0.56,0.772-0.619c0.347-1.395,1.296-1.851-0.308-2.938c-1.026-0.696-2.427-1.8-3.705-0.773L690.334,1316.006
		L690.334,1316.006z M708.243,1331.315c-1.077,1.161-1.846,2.835-2.471,4.33c-0.264,0.63-0.622,0.937-0.926,1.546
		c-0.496,0.996-0.795,1.904-1.081,2.938c-0.101,0.365-0.166,1.954,0,2.165c1.171,1.481,3.271-0.802,4.014-1.546
		c0.497-0.498,0.786-1.062,1.235-1.546c1.329-1.435,2.306-2.95,2.779-4.948c0.284-1.195,0.772-1.621,0.772-2.938
		c0-0.6-0.759-1.737-1.235-1.856c-0.08,0.24-0.794,0.641-1.081,0.928L708.243,1331.315z M652.816,1347.242
		c-1.897-0.355-4.299-0.635-5.867,0.774c-0.54,0.485-0.67,1.131-1.081,1.701c-0.363,0.505-0.884,0.95-1.235,1.546
		c-0.415,0.705-0.718,1.965-0.309,2.784c0.907,1.819,3.523,2.026,5.404,1.701c1.523-0.263,2.513-1.056,3.705-2.011
		c1.423-1.141,1.853-1.878,1.853-3.711L652.816,1347.242z M732.483,1187.038c2.511,9.437,4.255,9.48,0.772,18.866
		c-2.523,6.796-1.235,11.213-1.235,18.093c0,15.154-3.348,28.236-5.713,42.989c-1.853,11.553-4.35,15.316-14.358,22.113
		c-7.424,5.041-18.102,24.252-28.717,18.248c-12.21-6.907-5.578-20.495-5.095-31.546c0.475-10.887-1.375-17.446,6.484-26.289
		c4.547-5.116,7.426-17.999,8.338-24.587c0.87-6.284-0.282-16.306,1.853-21.649c-1.13-12.059,1.494-26.755-2.008-38.196
		c-1.268-4.141-13.644-13.453-17.446-13.453c-0.06-0.182-4.666-0.04-5.558-0.464c-18.229-8.696,2.947-18.35-0.772-30.464
		c-1.508-4.914-5.249-6.361-5.249-12.371c0-5.875,12.505-22.7,18.218-12.371c4.506,8.145,5.16,18.646,10.19,26.288
		c4.196,6.376,7.547,10.742,12.66,16.392c5.734,6.335,3.665,16.943,7.257,25.051c3.159,7.128,10.08,13.797,16.52,18.093
		L732.483,1187.038L732.483,1187.038z M671.652,1071.369c-2.995,0.462-7.928-1.518-11.116-2.01c-3.036-0.468-5.153,1.42-7.72,2.783
		c-1.966,1.043-6.929,2.112-5.404,5.567c0.643,1.455,1.921,2.655,2.779,4.021c3.849,6.133,3.883,11.76,12.506,7.113
		c4.095-2.207,8.808-3.233,13.278-1.856c1.156,0.356,19.287,5.405,13.586-0.309c-2.269-2.273-5.451-2.177-8.183-3.402
		c-4.336-1.945-2.103-5.808-4.632-8.969L671.652,1071.369L671.652,1071.369z M675.203,1013.534c-2.133-1.294-5.144-3.733-7.72-2.01
		c-1.596,1.066-1.626,2.581-2.47,4.175c-1.526,2.884-4.597,4.33-5.404,7.732c-0.686,2.889,0.586,6.825,1.235,9.433
		c1.909,0,3.29-2.23,5.403-1.237c1.987,0.935,4.631,5.457,6.948,2.629c1.461-1.783,1.59-2.557,1.853-4.948
		c0.303-2.757,2.256-4.988,2.471-7.577L675.203,1013.534L675.203,1013.534z M713.184,1119.925c-1.729-0.932-2.038-3.637-3.397-5.103
		c-1.934-2.086-5.527-6.635-8.491-6.804c-3.282-0.188-3.488,3.816-2.625,6.185c1.757,4.827,8.324,6.397,9.727,10.979
		c0.604,1.972,1.114,4.571,1.853,6.34c1.383,3.313,4.038,0.266,5.095-1.855L713.184,1119.925L713.184,1119.925z M757.34,1160.595
		c-6.025-0.207-10.774-7.072-17.137-7.886c-1.817-0.232-5.867-0.139-5.867,2.474c0,3.939,8.756,7.021,11.733,8.351
		c2.003,0.894,3.65,3.036,5.095,4.484c1.974,1.979,7.492,3.995,10.036,4.485c1.916,0.369,3.788-0.873,4.786-2.32
		c1.163-1.688-0.489-3.659-1.39-5.103L757.34,1160.595L757.34,1160.595z M769.074,1204.048c-0.186-0.807-0.155-1.491-0.155-2.319
		c0-4.26-2.861-7.256-3.859-11.134c-0.573-2.224-1.538-5.751-4.478-5.103c-1.393,0.306-1.999,1.667-2.162,2.938
		c-0.237,1.85,1.251,3.989,2.162,5.567c2.67,4.628,0.02,15.154,7.72,15.154L769.074,1204.048L769.074,1204.048z M772.007,1240.388
		c1.053-5.636,2.107-10.422,0.463-16.238c-2.145-7.584-6.383-2.868-6.793,2.475c-0.758,9.876-4.517,21.457-7.411,30.927
		c-1.655,5.419-6.131,8.961-7.411,14.381c-0.818,3.46-3.013,10.922-1.081,14.072c2.3,3.748,5.408-6.161,5.713-7.113
		c1.827-5.71,5.132-11.641,7.874-16.855c1.105-2.101,3.008-3.95,4.169-6.186c1.73-3.335,2.36-7.2,3.86-10.206L772.007,1240.388
		L772.007,1240.388z M782.815,1193.842c0.77-3.605-0.269-5.951-3.706-7.577c-3.14-1.485-6.984-1.656-5.866,3.093
		c0.444,1.887,2.007,4.395,2.007,6.341v6.185c0,1.329,0.591,5.104,1.699,5.876c3.127,2.179,4.94-4.074,4.94-6.185L782.815,1193.842
		L782.815,1193.842z M805.047,1207.45c-2.703-1.402-9.848-5.549-12.969-3.556c-3,1.916-1.545,44.114-4.477,51.803
		c-1.334,3.501-3.069,10.225-5.404,12.835c-1.229,1.375-5.802,6.811-5.249,8.351c0.162,0.451,7.308,4.454,8.337,5.103
		c5.892,3.709,13.512-4.98,18.373-7.732c9.868-5.589,16.81-21.569,16.366-32.783c-0.429-10.852-8.492-19.567-8.492-29.381
		L805.047,1207.45z M781.271,1285.697c-3.859-1.229-4.492-4.633-9.418-3.402c-2.834,0.709-2.162,3.219-2.162,5.412
		c0,3.017-1.785,5.131-2.471,7.886c-0.52,2.09,0.564,4.783,2.008,6.341c1.928,2.079,6.164-4.533,8.954-5.103
		c2.518-0.516,6.004-0.426,8.029,1.082c1.818,1.354,2.013,3.126,4.786,2.32c1.43-0.416,3.652-1.634,3.551-3.402
		c-0.114-1.997-3.324-2.292-4.632-3.402c-1.676-1.424-6.175-3.336-6.175-6.031L781.271,1285.697L781.271,1285.697z
		 M862.018,1153.018c-0.532-2.317-0.163-4.986-0.617-7.268c-3.088-1.321-5.28-0.27-7.72,1.546
		c-4.468,3.326-12.515,4.637-12.197,11.908c0.122,2.81,1.737,4.96,1.853,7.886c0.058,1.471,0.155,2.859,0.155,4.33
		c0,1.459,0.653,1.686,0.926,2.784c4.853,0.692,8.391,0.093,12.66-2.474c4.753-2.859,4.93-8.005,5.25-13.144L862.018,1153.018
		L862.018,1153.018z M865.569,1114.667c-3.224-0.807-5.002-2.01-8.492-2.01c-3.113,0-10.346,3.994-10.961,7.113
		c-0.988,5.017,4.374,7.577,8.182,9.278c2.971,1.327,5.158,0.836,7.72,3.402c2.708,2.714,7.303,5.858,11.271,2.938
		c2.352-1.732,1.459-4.389,2.007-6.804c0.74-3.262-1-4.867-2.162-7.577L865.569,1114.667L865.569,1114.667z M902.468,1166.317
		c-2.892-3.122-5.547-8.393-8.028-12.062c-3.461-5.12-4.381-2.378-7.874,0.619c-3.002,2.576-6.512,3.631-7.874,7.886
		c-1.332,4.16,0.952,7.884,3.087,11.288c4.308,6.869,5.258,25.553,16.366,26.289c4.216,0.279,8.165,3.039,11.425-1.237
		c2.714-3.561,1.737-14.838,1.389-19.02L902.468,1166.317L902.468,1166.317z M876.84,1198.636c-2.875,0.512-6.837,1.162-9.264,2.784
		c-2.69,1.798-4.36,7.577,0.463,7.577c0.919,0,1.918-0.005,2.779-0.309c0.771-0.272,1.474-0.796,2.162-1.083
		c0.705-0.295,1.81,0.358,2.625,0.309c1.242-0.075,2.639-2.085,3.396-2.938L876.84,1198.636L876.84,1198.636z M991.707,1357.603
		c0.551-7.179,5.457-10.952,2.933-19.175c-1.625-5.294-6.241-11.048-8.337-2.629c-1.277,5.13-2.161,9.691-2.161,15.155
		c0,3.251,0.463,6.35,0.463,9.587c0,4.383-2.316,7.985-2.316,12.526c0,2.82,2.957,1.307,3.859-0.155
		c0.735-1.19,3.242-8.411,3.242-9.432L991.707,1357.603L991.707,1357.603z M375.838,193.642c-0.499-0.175-1.321-0.689-1.853-0.619
		c-0.577,0.077-1.652,0.596-1.158,1.314c0.331,0.481,0.873,0.816,1.389,1.16c0.517,0.345,0.475,0.461,0.772,0.928
		c0.137,0.214,0.232,0.583,0.463,0.696c0.864,0.423,1.682,0.216,2.47-0.31c0.301-0.201,0.862-0.522,0.926-0.928
		c0.075-0.474-0.427-0.701-0.617-1.082L375.838,193.642z M401.158,200.522c-0.299-0.123-0.392-0.147-0.618-0.309
		c-0.275-0.198-1.134-0.168-1.467,0.077c-0.263,0.192-0.308,0.702-0.308,1.005c0,0.674,0.111,1.506,0.772,1.856
		c0.273,0.145,0.486,0.152,0.772,0.232c0.341,0.097,0.722,0.102,1.081,0.077c0.466-0.032,0.214-0.176,0.386-0.464L401.158,200.522
		L401.158,200.522z M422.696,229.595c-0.784-0.064-1.893-0.718-2.702,0c-0.242,0.214-0.246,0.545-0.463,0.696
		c-0.654,0.456-1.588,0.355-2.316,0.619c-1.084,0.392-1.089,3.033-0.772,4.021c0.144,0.45,0.4,1.171,1.003,0.851
		c0.363-0.192,0.595-0.613,0.849-0.928c0.316-0.389,1.237-1.042,1.776-1.082c0.522-0.04,0.911,1.483,1.776,1.701
		c1,0.253,3.087-0.509,3.087-1.701c0-0.432-0.634-1.105-1.003-1.314c-0.648-0.366-0.337-0.775-0.231-1.314L422.696,229.595
		L422.696,229.595z M413.895,201.683c-0.739-0.235-1.285-0.582-1.93,0.077c-0.257,0.262-0.54,0.697-0.54,1.082
		c0,0.275,0.089,0.579,0.154,0.851c0.126,0.527,0.406,1.366,0.849,1.546c0.436,0.178,1.025,0.211,1.467,0.31
		c0.719,0.16,2.072,0.137,2.625-0.464c0.836-0.908,0.128-1.951,0-2.861L413.895,201.683L413.895,201.683z M260.045,127.766
		c0.046-0.937,0.365-2.475-1.003-2.475c-1.007,0-5.003-1.728-3.319,0.928c0.736,1.162,1.187,3.914,0.694,5.18
		c-0.74,1.899-1.901,2.889-0.077,4.717c1.081,1.083,2.629,1.946,3.782,2.938c2.836,2.438,3.412,2.895,7.179,1.314
		c2.455-1.029,4.59-1.864,3.705-4.948c-0.284-0.994-2.303-0.9-3.165-0.773c-4.467,0.656-0.263-3.908-3.782-4.407
		c-0.996-0.141-3.652,0.906-4.478,0.077L260.045,127.766L260.045,127.766z M291.772,133.564c-0.632,0.223-1.125,0.164-1.776,0.078
		c-0.541-0.071-1.521,0.233-1.776,0.696c-0.221,0.4-0.032,0.757,0.386,0.928c0.282,0.115,0.654,0.29,0.772,0.619
		c0.163,0.455,0.462,0.975,1.003,1.005c0.633,0.036,0.919-0.024,1.467-0.31c0.602-0.313,0.858-0.748,1.235-1.314
		C293.084,135.265,291.772,133.564,291.772,133.564z M314.236,143.461c-1.633,0.894-0.902,2.291-1.698,3.634
		c-0.688,1.16-1.398,0.262-1.621-0.541c-0.22-0.796,0.572-1.537,0.308-2.397c-0.143-0.47-1.259-1.271-1.776-0.928
		c-0.964,0.643-0.711,3.953,0.309,4.408c1.015,0.453,1.142,0.253,1.389,1.546c0.163,0.849,0.356,1.878,0.772,2.629
		c0.672,1.21,2.581,0.781,3.705,0.541c0.634-0.135,1.408-0.967,1.235-1.7c-0.08-0.34-0.668-1.695-1.004-1.779
		c0-0.512,1.057-1.219,1.39-1.701c0.617-0.891-0.161-1.787-0.849-2.474L314.236,143.461L314.236,143.461z M223.454,163.951
		c0.299-1.047,0.97-1.397,0-2.165c-1.189-0.942,0.761-1.857,0.463-3.711c-0.431-2.684-3.332-6.1-6.099-6.572
		c-3.819-0.651-3.621,0.643-4.323,3.634c-0.485,2.064,0.702,2.847,1.39,4.485c0.524,1.249,1.984,1.846,2.316,3.247
		c0.275,1.159-0.04,4.192-0.772,5.103c-1.615,2.007-3.86,0.217-3.86,3.943c0.911,0.15,5.307,1.485,3.473,3.324
		c-0.471,0.472-2.729,1.54-0.926,2.165c1.101,0.382,0.541,1.533,0.541,2.552c2.274,0.459,5.249,2.083,5.249-1.855
		c0-2.554-0.622-5.116-0.309-7.655c0.167-0.766,0.252-1.434,0.463-2.165c0.188-0.652,0.449-1.223,0.695-1.778
		c0.284-0.643,1.56-0.744,1.93-1.391L223.454,163.951L223.454,163.951z M292.437,1273.621c0.407-0.611,2.618-3.087,3.041-3.7
		c0.397-0.575,0.838-1.138,1.235-1.701c0.468-0.665,0.936-1.539,0.771-2.397c-0.348-1.816-3.782-1.917-4.863-3.479
		c-0.582-0.843-0.772-1.109-0.772-2.165c0-2.213,0.618-4.194,0.618-6.34c0-2.103-3.221-2.993-4.555-4.408
		c-3.118-3.304-2.939-11.275-7.72-10.438c-4.255,0.745-0.524-4.216-2.933-6.34c-0.646-0.57-3.021-2.888-2.471-3.866
		c0.733-1.302,4.229-1.093,4.323-2.32c0.159-2.063-2-4.202-3.551-5.257c-6.057-4.123-1.872-13.661-3.782-19.794
		c-4.735-3.017-0.551-6.101,1.775-8.428c2.867-2.867-1.532-4.854-0.231-9.123c1.134-3.723-0.422-3.552-3.165-6.031
		c-1.448-1.309-1.301-3.015-1.93-4.717c-1.156-3.131-0.081-12.062-2.856-13.608c-3.849-2.146-3.73-1.555-3.86-6.186
		c-0.097-3.47-2.074-5.104,1.158-7.577c1.984-1.518,1.708-2.39,2.393-4.562c-1.161-1.629-4.427,0.039-5.712-1.16
		c-1.049-0.977-0.76-3.577-1.081-4.948c-1.22-5.209,1.92-5.609,3.86-10.361c0.705-1.726,2.451-5.272,1.621-7.036
		c-1.663-3.53-6.133-5.387-7.797-9.278c-2.142-5.009-0.853-8.299,2.625-12.371c1.735-2.03,4.95-2.645,6.175-4.253
		c2.751-3.609,1.02-7.771,2.316-11.675c0.155-1.86-3.59-9.013-5.712-8.66c-7.071,1.179-8.04-0.073-10.113-7.113
		c-0.986-3.347,2.299-4.718-0.926-6.572c-2.947-1.693,0.359-9.3-5.867-5.103c-7.027,4.737-2.221-8.899-2.47-10.206
		c-0.446-2.339-6.328-6.418-0.926-6.418c6.843,0,2.656-2.258,4.478-6.881c1.032-2.62,0.181-3.637-0.232-6.263
		c-1.117-4.761-3.831-9.651,1.081-13.067c2.42-1.683,9.616-7.902,10.654-10.438c1.2-2.935,2.59-5.419,4.4-8.119
		c2.587-3.858,6.13-5.268,10.113-7.268c0.129-1.042,1.209-3.893,0.386-4.716c-5.598,0-12.522,5.595-17.137,0.696
		c-4.877-5.178-10.153-5.394-17.215-4.717c-2.543,0.244-10.001-7.921-10.267-1.778c-0.532,12.289-6.501,0.631-10.576-1.624
		c-4.227-0.465-10.905,0.896-10.653-5.567c0.178-4.568-3.894-5.154-4.941-9.046c-0.794-2.955,3.573,0.536,5.172-0.541
		c0.827-0.558,1.42-2.574,2.394-2.629c5.004-0.282,2.445-4.331,1.853-7.887c-0.974-5.843,7.518-4.885,6.175-11.211
		c-1.027-4.84-4.542-2.496-1.621-8.118c0.831-1.599,0.141-3.575,0.386-5.335c1.946-5.364,11.688,0.161,8.492-8.505
		c-2.326-6.304,5.062-4.722-1.776-10.825c-2.662-2.376-6.394,4.617-8.569,5.18c-4.839,1.252-5.714-6.298-10.807-8.119
		c-2.448-0.874-4.224-5.181-6.793-6.959c-5.092-3.523-4.036-4.141-6.484-9.278c-0.805-1.691-3.873-8.103-5.172-8.969
		c-2.6-1.732-11.437,4.469-12.969-2.861c-1.461-6.987-4.954-6.099-2.547-13.763c0.22-3.555-2.862-9.525-1.621-12.216
		c1.829-3.966-0.262-6.616,1.776-10.284c1.171-2.108,1.818-4.807-0.386-6.572c-4.771-3.822,2.347-1.527,4.323-4.717
		c1.152-1.857,0.773-3.969,2.47-5.876c2.481-2.786-1.849-10.742-4.091-12.99c-2.984-2.992,14.296-4.272,17.138-3.402
		c4.88,1.494,8.486-3.507,10.961-7.113c0.836-1.15,2.293-4.632,3.86-4.562c2.289,0.103,4.359,3.092,6.252,0.077
		c1.434-2.282,1.409-9.861-0.231-12.139c-2.482-3.448-0.132-5.982,3.551-6.65c6.407-1.161,2.418-6.312,0.694-5.644
		c-9.741,3.773-3.327-7.578-4.632-12.835c-0.288-1.16-1.55-2.381-1.621-3.556c-0.097-1.582,0.781-3.108,1.081-4.639
		c1.325-6.749-6.891-5.453-7.179-7.345c-0.336-2.201,2.125-3.048,3.011-4.562c2.438-2.984,9.923-4.354,9.263-8.66
		c-0.797-5.197-4.88-7.365-4.478-13.53c0.739-11.312,3.155-26.026-10.653-29.923c-4.183,0-12.177,5.555-14.744,2.552
		c-3.36-3.932-7.491,1.681-10.422-3.479c-1.989-3.503-4.618-1.104-6.252,1.933c-2.564,4.763-3.239,4.214-4.864-0.387
		c-2.789-7.9-4.822-7.028-12.274-8.892c-2.787-0.697-7.683-4.75-9.958-6.65c-8.238-6.881-20.019,2.45-29.412-1.469
		c-5.348-2.677-9.199-9.485-13.664-13.453c-6.082-5.406-7.878-6.667-16.443-8.273c-4.99-0.936-6.237-3.92-8.877-7.887
		c-3.493-5.249-8.808-5.846-13.509-9.046c-3.455-2.352-10.8-13.085-11.039-17.164c-1.397-4.2-6.671-11.518-9.572-15.155
		c-3.796-4.759-11.542-11.34-3.088-16.082c3.514-1.971,6.423-6.969,8.337-10.438c2.709-4.912,1.794-13.834,5.713-16.778l8.646-6.495
		c1.11-2.09,3.6-2.609,3.705-5.335c0.091-2.335,4.018-3.971,5.866-4.639c3.234-1.17,1.516-10.884-0.54-13.144
		c-1.511-1.66-6.332-6.161-4.169-8.66c1.851-2.138,11.618-4.22,14.667-5.49c8.383-3.49,8.77,1.178,13.895,6.572
		c2.76,2.906,1.639,7.283,1.853,10.825c1.275,3.199,3.649,1.348,6.716,2.784c2.271,1.064,7.607,2.921,9.804,1.546
		c1.581-0.99,4.384-4.271,3.242-6.34c-1.579-2.863-7.084-3.296-2.779-6.418c1.537-1.114,1.278-2.47,2.239-3.866
		c2.208-3.207,4.93-4.84,8.569-3.093c1.852,0.89,6.3,2.143,6.407-1.005c0.099-2.901-1.977-6.13,1.467-6.727
		c1.969-0.341,0.997-3.692,1.158-4.871c0.352-4.205,4.478-1.733,5.867-4.252l3.242-5.877c2.451-4.443-7.659-4.468-0.617-11.52
		c1.65-1.653,0.176-6.818-0.232-8.814c-1.39-6.813-0.801-3.902,2.857-8.505c4.448-5.596-0.722-10.271-3.088-15.309
		c-0.654-1.391-2.801-7.516,0.694-4.021c1.657,1.657,3.231,2.282,5.481,1.392c5.469-2.165,2.784-4.263,9.804-1.778
		c2.021,0.715,11.638,3.422,12.506,4.562c2.454,3.218,1.34,3.72,5.944,2.397c3.297-0.948,4.913-3.442,7.642-5.026
		c6.547-3.799,12.97,0.989,17.755-3.324c6.057-0.374,9.135,1.731,13.046,5.876c4.906,5.199,8.351-1.634,10.962,0.851
		c2.402,2.284,5.411,4.737,8.491,1.469c1.739-1.844,4.092-9.078,7.102-7.732c2.925,1.307,9.786,8.436,11.965,8.351
		c5.196-0.203,3.324,1.378,6.87,2.861c0.424,0.177,6.058-4.968,5.481-6.418c-0.904-2.272-1.912-1.691-0.077-4.484
		c7.663-2.565,3.227-3.508,3.473-9.51c0.087-2.109,5.94-7.113,7.874-7.113c3.832,0,5.018,1.008,5.018-3.634
		c0-7.916-2.345-2.675-8.028-4.871c-5.905-2.282-12.88-0.796-15.748-7.268c-2.918-6.582-3.579-0.519-7.256-0.851
		c-1.89-0.17-2.727-2.39-3.551-3.866c-1.753-3.139-4.027-5.833-5.404-9.046c-0.755-1.763-0.407-4.298-1.39-5.722
		c-1.421-2.058-3.339-1.617-4.169-4.484c0.92-1.708,2.643-2.97,2.316-4.871c-0.297-1.732-2.584-2.085-1.621-4.485
		c0.442-1.102,2.21-1.265,2.393-2.242c0.284-1.523-0.367-3.351-0.309-4.948c0.097-2.701-0.727-3.252-3.242-4.562
		c-4.425-2.304-2.421-3.428-2.239-7.655c0.124-2.885-4.852,0.507-6.021,1.005c-2.308,0.46-4.372-1.757-6.021-0.464
		c-1.509,1.184,1.127,3.314,0.232,5.103c-2.524,5.049-5.835-2.6-9.572,0.541c-3.334,2.802-4.405,5.675-9.418,6.418
		c-6.059,0.897-8.437-1.945-11.039-6.186c-1.204-1.962-4.827-1.088-6.639-2.474c-3.321-2.54-18.154-1.691-19.685-4.253
		c-2.962-4.954-0.545-4.785-6.793-7.732c-4.858-2.291-2.546-6.602-3.087-10.438c-5.117-0.843-8.369-0.889-11.425-5.412
		c-3.98-5.891,1.367-6.999,1.699-12.449c-2.599-7.786-14.293-6.38-19.685-13.067c-1.456-1.805-0.917-5.018-2.471-6.263
		c-6.237-4.995-23.421-11.507-25.474-19.949c-0.706-2.903,1.069-5.966-3.396-5.103l-11.194,2.165
		c-10.247,1.982-21.618,7.283-25.32-7.113c-1.794-4.048-0.238-5.175,0.695-8.814c0.895-3.486-3.441-5.27-3.319-9.201
		c0.097-3.133-0.607-2.658-1.776-5.103c-1.515-3.168,0.783-4.709,2.856-6.572c4.57-4.106,5.162-2.613,4.014-8.66
		c-0.321-1.695,2.031-2.488,2.779-3.788c1.011-1.759,0.093-3.479,1.93-5.412c1.458-1.536,3.002-5.177,4.4-6.109
		c2.486-1.658,6.149,0.981,5.018-3.324c-1.036-3.118,0.052-5.675,1.081-8.583c0.9-2.546-2.166-3.924-3.937-5.257
		c-4.148-3.123,3.491-10.205,2.625-14.613c-0.279-1.421-0.121-2.639,1.235-3.479c1.601-0.992,3.113-0.572,3.628-2.938
		c2.322-0.579,6.9-2.461,8.878-3.865c1.757-1.247,2.029-2.723,3.551-3.866c1.838-1.381,2.774-0.822,4.864-0.387
		c2.568,0.536,3.258-0.093,4.864-2.088c1.616-2.006,6.094,0.858,8.028-1.082c1.686-1.691,5.301-7.169,7.025-7.809
		c3.337-1.238,2.746-2.315,3.165-5.257c-1.63-3.041-3.517-7.292-0.694-10.284c1.8-1.908,3.628-5.541,6.098-6.495
		c2.188-0.845,5.673-0.755,7.488-2.01c1.87-1.294-2.942-6.677,1.467-6.495c5.171,0.213,5.745-0.205,8.723-4.408
		c0.61-0.86,1.629-4.556,2.085-4.098c2.066,2.073,2.196,3.408,5.326,4.717c1.914,0.801,4.217-2.673,6.793-2.784
		c7.352-0.317-2.839-17.692-3.396-20.49c-5.089-10.178-9.664-2.738-16.366-7.577c-1.693-1.223-1.697-3.836-4.246-3.556
		c-3.559,0.391-3.76-3.168-7.951-1.005c-1.759,0.908-5.566,7.639-6.948,6.881c-1.558-0.853-3.364-8.942-3.474-10.902
		c-0.216-3.845,5.852-12.259,7.488-16.159c1.386-3.305,0.737-7.134,2.702-10.207l6.33-9.896c3.449-5.392,3.652,0.306,4.246,3.093
		c0.087,3.714,1.001,12.522,3.705,15.231c2.291,2.294,1.886,8.246,6.562,5.567c2.724-1.56,6.795-1.867,7.565,2.01
		c0.994,5.002,0.5,3.279,4.786,4.639c4.155,1.32,4.167,10.963,8.878,8.969c4.124-1.744,2.7,3.441,6.021,5.798
		c1.173,0.832,4.899,4.088,5.558,1.933c0.301-0.981-0.398-6.015,1.853-4.794c3.142,1.706,6.88-1.334,6.639,3.789
		c-0.113,2.404-0.785,9.435,2.857,8.892c4.18,0.634,2.386-1.171,4.246,2.552c2.445,4.898,6.87-1.044,6.87,7.268
		c0,3.953,4.246,5.631,4.246,9.51c0,5.728,2.973,4.408,7.874,3.17c3.516-0.889,1.57,4.113,0.695,6.108
		c-2.576,5.866-9.471,0.606-12.583,2.165c-3.251,1.627,0.027,3.666,1.081,5.103c1.55,2.114-4.137,1.447-3.397,3.866
		c1.77,5.787-0.687,3.681-5.558,4.33c-3.081,0.41,2.646,2.679,2.856,2.784c1.392,0.698,2.317,3.267,3.551,4.252
		c0.113,1.483,2.254,1.348,1.699,3.17c-1.064,3.489,1.135,2.795,3.165,4.33c1.978,1.494,0.891,4.855,2.47,6.341
		c1.809,1.7,3.69-4.04,1.39-6.031c-7.041-6.097-10.295-10.646-4.014-19.02c2.733-3.644,6.351,2.182,9.572-2.552
		c2.693-3.959,3.163-3.075,6.716-2.243c2.382,0.558,4.831-1.603,7.951-1.082c5.872,0.979,3.874,7.963,5.249,12.294
		c0.551,1.735,8.032,5.502,9.881,6.031c2.843,0.812,7.433,2.225,3.937-2.165c-4.743-5.954-0.116-7.376,3.474-10.129
		c4.371-3.352,6.876-1.55,11.193,0.851c0.975,2.213,4.83,8.954,6.948,9.974c3.282,1.581,7.57-1.761,11.425-0.464
		c5.07,1.705,19.811-2.827,11.888-7.886c-1.632-1.042-1.04-4.837-1.544-4.562c-3.935,2.156-6.203-1.962-9.064-2.85
		c-0.878,0.716-2.147,2.381-3.365,2.309c-1.717-0.102-0.391-1.767-0.232-2.552c0.082-0.404-1.424-1.597-1.776-2.087
		c-1.103-1.538,4.09-1.236,2.702-3.325c-1.145-1.723-2.184-1.289-2.316-3.634c-0.1-1.776-1.255-3.115-3.088-3.324
		c-2.295-0.262-1.406,0.588-2.47,2.01c-1.916,2.56-5.871,0.31-3.319-3.093c1.873-2.499-1.072-2.153-2.239-2.088
		c-1.606,0.09-1.89-1.181-3.396-1.469c-1.037-0.198-6.567-1.348-4.169-3.325c1.235-1.018,1.696-1.441,0.771-2.784
		c-1.148-1.667,0.198-3.357,1.003-4.871c2.779-2.577-1.378-6.685,4.478-5.49c2.544,0.519,2.211-6.148,4.478-7.345
		c1.928-1.018,6.472,1.567,6.561,3.557c0.063,1.408-1.784,7.874,0.077,7.654c2.268-0.267,2.598-4.452,6.484-1.701
		c1.695,1.2,1.529,2.595,2.857,3.634c0.934,0.732,10.088,2.269,11.656,2.32c11.575,0.372,0.177,6.837,4.863,9.742
		c4.746,2.942,0.481,6.173-0.231,9.046c-1.466,0.242-3.197,0.773-4.864,0.773c-0.049,0.152-0.027,0.004-0.077,0.155
		c-3.302,0.832-0.06,1.804,1.776,1.701c1.853-0.104,3.711-1.314,5.867-1.314c1.196,0,1.056,1.606,3.628,1.16
		c9.337-1.619,1.394,9.147,0.849,6.495c-1.388-6.756-1.73-3.371-2.548-0.077c-1.226,4.937-1.875,3.669,1.93,7.5
		c2.879,2.883,0.742,1.556,0.54,4.175c-0.106,1.365,3.029,1.797,3.783,2.938c0.854,1.294-0.144,2.265,0.772,3.402
		c3.943,4.888-3.003,13.817,1.544,16.624c3.49,2.153-0.248,6.479,4.246,9.82c4.156,3.089,4.639,1.778,9.109,1.778
		c3.266,0-0.381,3.989,4.555,2.243c3.065-1.085,6.528,2.297,7.411,5.18c1.279,4.174,7.577-0.832,4.246,5.18
		c-1.466,1.102-3.271,5.541-1.003,6.804c1.43,0.797,3.062-1.93,4.94-0.773c1.235,0.761-0.744,3.383,1.39,4.253
		c4.777,1.947,6.828-0.252,10.808,4.408c2.818,3.298,2.781,6.129,8.183,5.644c2.041-0.183,6.251,3.641,7.179,0.619
		c0.356-1.157-1.082-1.939-0.308-3.093c1-1.493,9.568-8.205,11.116-5.876c1.719,2.589-3.229,6.932,1.776,9.897
		c1.947,1.153,5.392,2.167,7.565,3.17c1.661,0.767,9.254-1.284,9.881-2.706c0.374-0.845-0.112-2.008,0.231-2.784
		c0.579-1.31,2.368,4.202,5.635,3.015c0.743,0,4.131-0.078,2.779,0.928c-1.003,0.747-1.877,0.644-2.238,2.088
		c-0.255,1.024,1.938,0.897,1.312,3.556c-0.368,1.562,0.812,4.47,2.548,2.552c4.202-4.644,1.401,1.617,6.484-0.464
		c0.764-0.313,1.742-5.708,1.544-6.804c-0.448-2.475,0.229-7.358,1.93-9.201c1.966-2.131-0.499-4.639,3.782-4.639l0.154-0.078
		c0-1.332,0.472-2.338,0.54-3.479c0.2-3.346,2.615,1.601,4.786,0.928c5.069-1.571,4.332-2.435,2.239-6.34
		c0.123-1.653,0.255-4.294-0.772-5.644c-1.917-2.522-4.926,5.325-8.029,2.397c-4.93-4.65,3.729-3.847,5.404-5.18
		c2.681-2.134,0.419-3.62-1.698-4.021c-3.824-0.726-8.472-4.338-4.323-8.196c1.242-1.155,5.558-2.675,5.558-4.716
		c-2.491,0-1.182-3.072-0.077-2.706c0.061-0.246,0.232-0.491,0.232-0.773c-0.248,0-0.584,0.014-0.772,0.155
		c-1.436-1.074-3.62,0.877-4.709,0.155c-1.095-0.727,0.117-3.479,1.312-3.479c2.288,0,4.814,1.945,7.257,2.242
		c0.623,0.075-0.589,2.388-0.772,2.938c-0.43,1.29,4.786,4.131,4.786,0.077c0-2.647-3.242-3.049-3.242-3.324
		c1.373,0,4.233,0.213,2.316-1.856c-0.567-0.613-2.109-0.849-2.393-1.237c-0.499-0.685-0.702-2.513-0.232-3.093
		c0.674-0.832-1.612-5.129,1.621-2.861c1.979-0.567,4.371,1.224,5.404,0.309c0.825-0.73,2.71-3.212,3.242-3.479
		c4.021-2.013,0.085,4.406,0.308,4.562c2.964,2.066-3.77,3.495-0.308,5.026c3.304,1.462,1.301,1.243,2.316,4.175
		c0.334,0.966,4.214,1.977,1.698,2.397c-4.368,0.728-0.597,3.024,1.003,3.943c1.518,0.871,2.759,2.467,4.246,0.31
		c0.516-0.748,2.133-4.295,2.702-1.314c1.031,5.397,4.329-0.781,6.33,1.7c1.336,1.656,0.863,2.837,1.776,4.562
		c0.932,1.762,2.8,2.889,1.699,5.103c-3.043,6.111,11.826,4.284,8.337,13.144c-1.065,2.703-0.444,3.583-0.849,5.722
		c-0.534,2.813-2.318,6.186,2.085,4.407c6.449-2.608,3.65,6.348,4.786,9.587c1.687,4.811,5.171-3.075,6.716-1.314
		c1.545,1.759,2.662,3.367,4.477,5.103c2.484,2.374-3.931,4.855-5.558,6.65c-5.899,6.513,6.783,3.955,8.183,4.175
		c3.339,0.852,1.461,2.582,0.077,5.103c-2.182,3.975-3.882,7.514-7.411,10.438c-2.596,2.152-2.179,4.727-2.084,7.5
		c0.076,2.256,0.021,4.879-1.389,6.727c-2.366,3.1-5.528,5.189-1.39,8.505c2.912,2.332,2.74,8.295,3.319,11.598
		c-0.399,2.348-0.877,6.05-0.926,8.428c-0.078,3.788,1.31,1.888,3.088,3.943c2.16,2.498,0.326,5.621,2.47,8.428
		c2.634,3.448,6.084,9.541,6.484,13.84c0.617,6.631-1.556,11.549-1.853,17.861c-0.779,7.81-5.249,13.309-5.249,21.263
		c0,5.02-0.463,8.789-2.779,13.221c-2.122,4.064-3.937,7.742-3.937,12.448c-2.269,9.581,1.848,19.578,2.702,29.072
		c0.195,0.163,0.154,0.026,0.154,0.309l0.386,0.387c1.705,0.245,3.488,2.686,5.635,3.247c4.344,1.135,7.626-6.203,12.737-4.562
		c4.586,1.473,7.311-0.863,11.656,0.155c2.711,0.634,3.59,3.679,5.636,5.335c3.236,2.622,10.445,1.235,14.512,4.098l13.509,9.51
		l14.436,2.087c4.066,0.587,7.159,2.889,10.576,5.026c11.352,7.101,28.929-2.156,38.135,7.963c5.487,6.032,11.068,2.5,16.442,5.954
		c5.959,3.828,7.158,4.014,13.973-0.542c11.146-5.426,22.363-1.952,33.966-3.633c3.231-0.468,7.141-0.659,9.572-3.093
		c1.938-1.94,3.673-1.768,3.86,1.005c0.212,3.142,5.918,3.34,9.109,4.253c2.537,0.725,7.64,0.464,10.421,0.464
		c4.255,0,9.142-8.966,13.124-4.021c3.863,4.798,8.803,5.503,14.667,4.485c3.12-0.159,5.448-2.53,8.8-0.928
		c7.964,3.806,31.849-6.885,41.454-8.274c14.863-2.149,29.928,0.615,44.773-1.16c3.281,0.28,5.949-2.065,9.341-1.546
		c2.403,0.368,2.054,4.047,4.091,5.026c1.973,0.948,4.954-0.201,7.334,0.773c5.559,2.275,6.508,2.242,12.66,2.242
		c3.264,0,7.395,1.34,11.27,1.469c3.512,0.117,2.741,4.845,8.106,4.175c7.641-0.955,3.314,6.801,13.587,3.557
		c4.157-1.313,11.051-0.476,14.281-3.17c2.627-2.192,13.335-8.819,11.193-1.237c-0.445,1.576,7.217,11.256,10.885,9.278
		c4.228-1.317,7.2-3.802,10.421-6.572c1.846-1.588,6.495,0.884,8.877,0.619c5.82-0.647,2.644-5.026,5.944-6.573
		c2.149-1.007,4.127,1.153,6.562,1.082c6.225-0.18,11.916-2.933,18.527-2.784c8.479,0.192,21.319-2.659,28.717,0.619
		c4.668,2.068,6.284-2.377,10.113-2.474l12.274-0.31c4.305,1.902,8.899,1.967,13.509,4.485c6.503,3.551,9.347,11.437,17.292,11.985
		c9.344,0.643,7.311,2.066,13.123,7.345c3.228,2.931,9.635,3.072,13.819,3.865c3.602,0.683,5.34,3.307,8.105,4.098
		c4.009,1.146,7.598-0.541,10.267,3.789c1.774,2.876,8.782,3.878,12.043,4.021c7.356,2.865,2.913,9.994,4.014,16.855
		c0.979,6.109,11.74-3.035,7.952,6.572c-1.849,4.689,8.51,3.325,9.881,7.809c1.019,3.332,0.108,18.239-4.941,15.619
		c-3.159-1.64-5.099-2.237-7.488,0.618c-2.743,3.28-8.595,2.543-12.892,3.093c-6.827,0.874-6.432-9.194-11.965-7.809
		c-2.78,0.696-6.243-1.72-7.797-3.866c-3.103-4.283-5.309-2.088-9.881-2.088c-2.056,1.065-4.799-1.02-7.333-0.696
		c-3.623,0.464-2.14,2.155-0.463,3.634c2.669,2.353-0.755,7.13-0.309,10.283c0.998,7.042,10.808,6.208,10.576,14.459
		c-0.079,2.808-1.539,4.702-3.011,6.881c-2.124,3.142-2.027,4.459-1.698,8.119c-0.052,3.199,1.135,7.724-0.463,10.747
		c-2.576,4.871-8.818-0.411-9.881,7.036c-0.484,3.388,2.324,6.699,2.779,10.129c0.671,5.048-4.746,9.502-2.161,15.618
		c1.924,4.554,1.853,15.089,1.853,20.103c0.33,10.702-12.654-1.643-16.829-3.093c-4.124-1.431-2.984,8.884-3.396,11.985
		c-0.459,3.455,2.72,9.139,3.242,12.912c0.729,5.274-2.809,2.973-5.558,2.861c-2.083-0.085-2.081,2.953-2.316,4.33
		c-2.282,13.398-17.335,11.126-26.787,9.432c-1.913,0.165-2.029-1.157-3.396-2.087c-2.101-1.43-5.394,0.66-7.951,0.309
		c-4.908-0.675-2.989,0.586-1.544,3.324c0.663,1.257,7.131,10.592,4.091,11.753c-2.945,1.125-5.897-4.325-7.256-6.108
		c-1.436-1.883-4.134,0.6-5.713,1.237c-5.841,2.355-3.939,4.025-2.47,9.356c1.052,3.817,4.22,8.733,2.856,12.835l-3.165,16.933
		c-0.661,3.538-8.421,27.225-11.811,14.691c-1.034-3.822-2.78-5.639-5.558-8.273c-2.467-2.339-2.941-2.791-3.165-6.34
		c-0.63-9.968-4.275-0.952-9.727-3.093c-3.259-1.279-6.492-3.261-9.418-5.103c-0.699-0.439-5.049-3.864-5.25-1.237
		c-0.348,4.569,8.406,25.747,0.463,25.747c-2.38-0.209-12.303-4.798-14.667-6.263c-1.597-0.99-4.509-10.429-4.632-12.758
		c-0.397-7.466-6.514-2.453-6.484-2.242c0.845,5.888,4.178,6.456,0.772,12.99c-4.233,8.117-3.666,15.044-9.804,22.809
		c-4.065,5.145-17.772,2.758-23.159,1.005c-6.369-2.072-12.557-2.037-18.45-3.788c-3.825-1.137-11.966-9.751-16.211-4.408
		c-4.639,5.838,3.231,12.346,4.477,17.784c-0.821,4.24-2.912,7.289-3.474,11.52c-0.413,3.114,0.713,9.922-4.863,6.572
		c-1.644-0.987-2.371,0.387-4.014,0.387c-3.013,0-5.641-3.663-8.723-3.015c-3.116,0.654,0.321,5.022-2.856,4.871
		c-3.42-0.161-9.589,4.062-7.874,8.196c3.111,7.502-1.483,3.201-4.941,5.799c-1.774,1.332-0.635,3.911-3.011,5.799
		c-2.675,2.125-8.443,4.838-4.863,9.046c2.638,3.101,8.978,4.347,9.418,8.351l-5.481,9.201c-4.306,7.231-0.019,14.149-12.042,14.149
		c-6.241,0-4.727,2.892-5.944,7.5c-1.572,5.947,0.93,6.176,5.481,7.577c5.249,1.617,6.189,12.272,0.926,10.516
		c-5.712-1.905-7.093-0.813-6.484,5.335c2.248,5.914,5.515,12.042,8.877,17.397c2.117,3.37,1.813,8.206,2.394,12.062
		c0.969,6.437,6.65,7.301,8.954,13.144c2.004,5.083,4.283,10.591,5.481,16.005c0.534,2.913,2.625,3.151,3.782,5.18
		c1.448,2.539-1.812,6.512,1.081,8.814c1.165,0.928,7.951,0.362,7.951,2.087c-10.141,5.07-3.064,11.534-2.393,18.48
		c0.874,9.052,1.943,19.552,4.014,28.376c0.966,7.738,3.9,21.33,9.109,27.216c2.39,2.699,5.668,9.977,9.186,11.057
		c6.692,2.054,0.56-18.872-0.231-20.876c-3.057-7.732-9.011-22.475-3.397-30.155c3.757-3.649,4.802-9.874,10.576-5.876
		c1.809,1.253,2.971,2.706,5.172,3.556c1.908,0.737,1.853,2.191,1.853,3.944c0,2.817,4.521,1.141,6.099,3.324
		c0.271,0.376-1.312,4.551-1.312,5.644c0,3.126,4.022,1.109,5.326,4.021c1.636,3.65,1.776,7.269,1.776,11.365
		c1.144,6.699,7.786,13.482,4.941,19.717c-1.426,3.122,2.999,3.914,4.632,6.031c3.324,4.307,1.293,11.564,5.79,17.01
		c3.293,3.989,10.247-0.374,11.116,4.871c0.79,4.773,4.012,5.776,6.948,1.469c4.928-7.229,10.743-6.44,18.913-8.119
		c4.962-1.02,9.427-7.428,14.435-9.742c5.626-2.6,1.816-7.368,3.783-9.665c3.946-4.608,11.733-0.22,8.723-10.438
		c-1.598-5.425-4.091-13.064-4.091-18.711c-0.241-8.778-7.952-15.671-7.952-23.814c0-10.919,9.505-24.678,14.282-34.253
		c6.398-4.205,7.757-13.121,16.828-14.072c6.479-0.68,6.377,1.494,10.499-4.484c10.143-14.712,7.477-26.644,4.014-43.144
		c-0.163-5.339-6.003-13.114-4.4-17.938c0.774-2.332,2.081-3.647,2.393-6.186c0.198-1.614,1.745-11.994,5.173-8.351
		c3.081,3.277,4.091,8.407,7.796,11.521c5.302,4.456,8.377,11.963,16.135,10.825c7.833-1.15,16.288-27.854,27.25-23.66
		c5.354,2.049,7.612,4.613,8.337,10.284c0.395,3.083-2.66,11.667,2.856,11.211c4.77-2.336,6.173-7.148,7.488-11.907
		c0.398-1.441,2.713-6.701,4.864-6.263c0.663,0.135,2.833,3.211,3.396,3.866c2.041,2.376,4.497,2.645,2.934,6.572
		c-1.049,2.635-3.049,6.909-4.709,9.123c0,5.644,0.24,12.165,5.096,15.928c5.044,3.911,3.876,15.744,5.172,21.804
		c1.754,8.202,0.785,16.276,4.632,23.969c5.011,2.344,3.705,2.489,3.705,7.577c0,2.701-0.108,6.663,2.779,7.887
		c6.33,2.682,3.165,3.773,3.165,9.587c0,3.274,2.971,6.05,3.628,9.51c0.956,5.041-2.115,8.237-5.018,11.83
		c-3.648,4.517-3.474,9.37-3.474,14.922c1.366,6.977,0.618,12.513,0.618,19.407c0,9.012,8.436,10.312,8.723,18.711
		c0.272,7.953-3.088,15.412-3.088,23.583c-0.168,7.514,3.164,15.838,10.653,18.866c6.547,2.647,4.84,4.333,8.26,8.814
		c2.107,2.761,2.368,4.584,1.235,7.809c-2.039,5.811,1.237,10.168,2.007,15.773c1.183,8.619,3.068,8.49,9.804,12.99
		c4.95,5.278,3.041,10.574,4.168,17.165c1.104,6.448,6.037,17.542,2.934,23.582c-4.978,9.691,3.136,10.79,2.547,19.716
		c-0.437,5.568,1.132,12.255,1.39,18.016c0.202,4.527,0.221,8.425,1.698,12.758c2.18,6.392,6.33,8.967,6.33,16.392
		c0,5.826-2.754,13.692,0.077,19.02c4.002,7.286,0.582,13.039,3.396,20.412c0.964,2.525,4.939,7.638,3.011,10.438
		c-2.182,3.17-14.509,0.152-8.569,6.109c2.495,2.501,2.146,6.173,2.702,9.355c0.489,2.794,1.874,8.042,1.544,10.67
		c-0.591,0.998-0.379,0.584,0.078,1.469c1.69,3.28,0.905,6.057,1.467,9.588c0.203,1.273,0.877,2.081,1.235,3.247
		c0.425,1.388,0.89,2.93,1.004,4.407l0,0l1.467,5.412c-1.376,5.05,3.532,9.124,4.863,14.304c1.291,5.027,1.976,8.116-2.007,11.753
		c-4.109,3.754,0.154,3.314,0.154,7.809c0,2.661-3.256,2.309-3.396,4.948c-0.443,8.32,0.639,17.264-1.235,25.438
		c-2.307,18.511,0.161,43.018,5.636,60.772c-0.407,2.155,1.224,6.015,1.544,8.428c1.23,9.27,2.845,17.292,5.326,26.289l2.857,10.361
		c0.928,3.364,2.842,6.087,3.859,9.355c-1.696,2.503-4.029,2.492-6.639,3.325c-2.455,0.783-2.463,2.64-4.168,4.02
		c-2.333,1.888-5.07,3.542-7.952,4.562c-1.96,0.694-3.775,0.347-3.859-2.01c-0.324-8.962-3.88-17.306-5.172-26.057
		c-0.937-1.877-0.868-6.699-2.779-7.809c-1.447-0.841-2.269,1.708-3.937,0.619c-4.376-2.86-5.876-3.172-6.948,2.474
		c-1.257,6.62-12.813,0.271-15.903,0.387c-8.356,0.314-3.756-6.435-5.712-10.593c-3.26-6.932-4.329-12.703-10.807-17.86
		c-0.918-0.731-8.218-0.177-9.109,0.464c-0.897,0.645-0.927,3.856-1.235,5.026c-0.957,3.621-2.124,3.696-4.478,6.418
		c-3.324,4.663-11.557-1.921-12.737,0c-0.931,1.514,0.4,3.214,0.463,4.794c0.125,3.111-5.03,3.245-3.705,7.886
		c1.787,6.261-6.313,7.57-10.499,10.207c-8.7,5.482-2.006,8.015,0.077,14.691c-1.006,2.808-1.294,7.378-0.386,10.361
		c1.27,4.167-0.107,4.037-1.853,6.959c-1.172,1.961,0.517,3.602-1.699,5.644c-1.375,1.267-4.122,1.654-5.172,2.938
		c-4.706,5.76,0.929,5.925,4.477,7.345c1.194,0.478-1.071,5.741-1.235,7.345c-0.552,5.383,7.726,1.799,7.951,6.804
		c0.303,6.73,6.922,4.897,9.264,9.588c-0.523,1.047-0.237,0.983,0.077,2.087c1.187,4.174-3.878,6.296-3.165,10.052
		c0.284,1.496,1.984,2.383,2.47,3.866c0.6,1.83,2.869,6.662,3.319,8.582l0,0h-0.463c-5.334,5.37,4.846,25.936,8.569,30.232
		c1.992,2.298,4.252,6.462,5.172,9.356c1.595,5.018,2.883,13.26,1.546,18.325c-1.063,9.591-6.843-0.678-8.491-4.176
		c-3.446-7.311-5.259-13.711-9.727-20.567c-2.26-3.466-8.94-12.362-8.337-16.237c-3.758-6.46-3.848-16.505-7.874-21.804
		c-4.74-6.241-11.665-13.288-15.748-19.794c-3.208-5.11-7.466-9.286-10.808-14.227c-3.523-5.21-9.467-9.869-11.27-16.082
		c-2.274-7.838-0.223-17.107,0.154-25.361c0.249-5.442-3.105-7.979-2.625-13.608c-0.74-8.903-8.135-16.65-14.049-22.577
		c-3.115-3.122-13.236-13.434-4.632-15.154c0.457-0.918,4.422-1.229,4.941-2.784c0.318,0,0.537-0.065,0.618-0.31
		c0.259-0.065,0.395-0.103,0.463-0.309c10.256,0,4.393-46.391-1.081-46.391l-0.154,0.155c0,6.433,4.529,12.505,2.47,18.711
		c-1.993,6.006-1.268,15.531-4.786,20.412c-3.644,5.058-10.371-3.354-15.285,3.093c-1.167,1.531-3.229,9.262-5.867,7.577
		c-6.493-4.146-0.442-15.452,0.771-20.876c1.019-4.549-1.624-8.712-1.389-13.608c0.448-9.364,5.489-6.445-3.087-14.536
		c-6.225-5.873-0.544-16.331,1.698-22.886l8.801-23.969c2.998-8.165-0.926-11.851-0.926-19.793c0-4.448-0.674-9.737-4.323-12.68
		c-4.103-3.308-3.223-15.104-3.408-20.262c-0.357-2.333-2.613-5.243-2.613-8.655c0-10.375-7.731-10.212-12.66-17.938
		c-5.668-8.886-2.282-20.313-8.028-27.99c-3.897-5.206-9.249-9.21-8.337-16.701c-1.366-17.804-4.627-46.27-16.829-60
		c-11.421-12.849-27.897-37.578-43.23-44.381c-20.382-9.044-9.455-25.847-33.812-17.938c-8.786,2.854-13.039-4.721-21.615,3.866
		c-4.03,4.034-17.337,6.505-7.874,14.536c14.072,11.94-11.143,55.523-22.541,63.402c-10.746,4.599-15.158-9.472-18.836-16.083
		c-6.948-12.485-27.938-25.468-39.678-33.866c-10.414-7.451-28.557-15.519-32.577-28.608c-1.703-5.544-9.709-16.271-9.263-21.031
		c-1.054-3.165-7.717-11.533-10.499-13.762c-5.509-4.414-11.065,2.432-14.822-6.031c-5.103-11.499,3.994-18.036,1.081-27.526
		c-2.123-6.915-3.208-11.908-4.323-19.175c-1.585-10.337-2.47-20.945-2.47-31.546c0-2.047,0.279-14.407-1.853-14.536
		c-3.266-0.198-9.221,10.391-10.962,13.299c-1.581,2.642-0.849,5.665-2.316,8.196c-3.775,6.511-18.064,11.342-19.916,18.557
		c-2.106,8.207,8.585,17.194,12.506,23.659c2.857,6.132,12.197,7.538,12.197,15.464c0,6.611-9.911,6.047-14.512,8.35
		c-5.166,2.584-4.125,4.794-10.962,4.794c-9.764,0-7.004,7.167-8.337,12.371c-0.991,3.867-3.153,5.399-2.934,9.897
		c0.176,3.63,6.162,4.136,6.33,6.34c0.407,5.345-5.425,4.426,0.617,10.052c10.88,10.129,6.352,17.063,7.565,30.464
		c0,21.448,21.161,19.5,25.011,37.886c0.625,2.985,6.49,10.071,5.404,11.443c-1.991,2.514-6.258,2.012-6.021,6.65
		c0.181,3.531,4.498,3.304,5.25,5.567c5.084,0-1.809,20.944-3.088,23.505c0,17.907-8.945,15.485-18.064,26.134
		c-5.85,6.833-8.222,14.751-12.66,22.268c-2.456,4.161-10.849,16.352-16.057,14.226c-0.573-0.234-3.486-1.807-3.705-0.928
		c-3,0.599,2.184,7.981-0.618,11.134l-10.035,11.288c-8.591,9.664-5.309-9.88-1.544-11.134c0-3.505,12.804-12.994,7.257-14.381
		c0-8.571,13.433-24.869,6.175-30.773c-4.681-3.809-0.617-8.072-0.617-12.526l-0.154-0.154c-6.169,0-7.891,17.319,1.544,17.319
		c0.798,3.2-4.941,9.556-4.941,15.463c-6.109,2.036-1.375,6.847-4.323,10.825c-3.044,4.107-7.439,7.239-10.036,11.443
		c-6.813,11.03-7.189,21.781-11.888,33.556c-9.009,22.574-19.983,50.238-48.633,29.536c-6.645-4.802,2.424-8.983,1.081-14.382
		c-5.113,0-13.97,11.76-17.6,0.619c-2.409-7.391,1.459-20.283,7.566-25.206c6.694-5.397,15.288-41.789,28.562-38.814
		c10.15,2.274,17.462-12.077,16.829-21.65c-0.534-8.088-6.948-8.635-6.948-16.392c0-4.674-3.859-20.681-3.859-6.649
		c0,7.523,2.02,12.724,5.249,19.02c1.811,3.532-4.731,22.567-8.954,22.268c-7.351-0.521-8.077-2.414-13.895,3.711
		c-5.961,6.274-18.426,36.723-25.629,37.113c-6.54,0.354-8.872-11.069-7.72-15.928c1.412-5.953,10.036-2.413,10.036-14.536
		c0-8.819-0.547-11.187,4.323-18.248c4.562-6.616-8.639-12.526-1.235-12.526c0.293-1.175,11.585-12.609,13.587-16.855
		c2.846-2.034,4.106-10.978,2.934-14.227c-1.672-4.632-1.357-7.756,1.39-12.061c1.437-2.254,4.161-6.074,4.632-8.66
		c0.512-2.817-2.854,0.783-3.242,1.237c-1.561,1.825-1.995,4.495-3.706,6.031c-2.948,2.644-3.815,4.507-5.712,7.887
		c-2.021,5.571,7.27,7.032,2.779,14.072c-3.022,4.738-8.795,3.736-6.33,11.134c1.89,5.669-23.147,15.621-12.506,19.33
		c9.462,3.297,5.531,3.177-0.617,10.051c-5.641,6.306,4.108,15.271-7.102,21.185c-8.887,4.688,6.602,35.735-7.411,31.392
		c-8.811-2.731-6.096-11.487-8.028-18.248c-1.051-3.682-3.595-7.293-4.941-10.979c-3.56-9.754,3.644-18.516-1.235-28.299
		c-4.57-9.164-6.425-23.322-8.954-34.02c2.096-8.41,5.524-9.375,9.572-15.928c2.206-3.571,0.912-10.968,3.242-13.608
		c7.321-8.298,14.211-9.875,16.829-21.804c1.277-5.821,5.048-6.58,9.881-8.196c0.928-7.446,2.616-18.584,0.771-25.979h-0.308
		c-2.275,6.846-2.625,9.048-2.625,16.701c0,10.418-5.007,6.775-9.881,9.897c-0.306,0.196-0.388,8.176-0.926,10.206
		c-1.368,5.163-7.254,7.894-11.27,10.67c-5.763,3.983-5.385,14.895-12.197,1.237c-5.158-10.341,0.421-14.304-13.741-19.02
		c-3.075-1.024-10.345-9.896-10.653-9.896c-1.258,5.032,3.135,9.191,7.72,9.896c4.109,0.632,8.468,7.188,11.888,8.042
		c0,0.337-0.034,0.378,0.308,0.464c0.13,0.91,0.926,1.54,0.926,2.629c0.568,0.283,0.016,0.777,0.618,0.928
		c0.585,4.112,1.642,6.518,0.463,10.979c-1.577,5.971,2.214,5.63,5.558,9.123c-5.057,6.585-12.552,13.289-13.587,22.268
		c-0.801,6.955-3.84,17.7,4.478,20.876c5.217,1.993,5.813,8.496,6.639,13.299c1.18,6.868,0.863,13.935-4.478,18.247
		c-1.835,1.481-4.827,8.26-8.8,5.722c-4.032-2.574,1.153-6.196,0.463-8.969l-0.155-0.155c-2.123,0-3.115,2.248-4.245,3.866
		c-7.103,5.337,4.573,8.213,7.488,11.134c5.47,5.48,2.94,16.119,5.173,23.427c2.057,7.029,8.481,20.112-3.86,20.644
		c-2.791,0.12-2.393,5.097-2.393,6.959c0,3.938-5.681,1.597-8.337,3.17c-1.405,0.832-4.993,3.689-6.407,1.855
		c-1.774-2.298-4.528-3.537-6.407-5.798c-1.884-2.266-3.782-5.493-5.404-7.964c-1.322-2.389-2.623-4.566-1.93-7.268
		c0.459-1.787,2.127-2.964,1.003-5.026c-2.658-4.878-2.181-6.396,1.544-10.129c3.198-3.205,2.42-5.02,3.628-9.123
		c0.284-0.965,0.019-5.122-0.618-4.485c-1.546,1.546-1.454,3.66-1.081,5.489c0.418,2.05-1.325,5.492-2.779,6.881
		c-2.917,2.789-6.704,1.572-3.937,7.113c0.568,2.861,3.221,6.763,0.232,9.046c-3.038,2.32,1.777,6.396,3.01,8.351
		c3.273,5.184,3.475,17.321-5.944,13.298c-3.337-1.426-3.802-1.325-7.488-1.237c-3.702-2.286-1.371-5.323-2.239-8.351
		c-0.448-1.566-2.47-3.589-2.47-5.18c0.126-0.042,0.269-0.226,0.309-0.387c4.594,0,7.109-11.61,7.488-14.845
		c0.708-6.034-0.949-12.968,2.856-18.17c4.143-5.663-4.402-7.234-3.86-9.355c0.244-0.956,3.843-3.448,4.709-4.253
		c1.908-1.775,1.853-3.216,1.853-5.721c-0.141-0.036-0.119-0.013-0.154-0.155c-1.848,0-1.644,3.983-2.471,5.18
		c-1.452,2.104-2.822,1.226-4.941,1.933c-5.826,1.943,3.937,6.074,3.937,8.119c0,3.341-2.258,4.962-3.551,7.654
		c-2.814,5.86-0.393,6.077,0.695,11.52c0.593,2.97-0.183,10.519-2.316,12.835c-6.962,7.565-7.067-0.803-10.267-6.881
		c-1.108-2.104-9.622-4.373-10.035-2.707l0.077,0.078c8.035,0,13.122,6.109,10.576,13.762c-7.226,7.242,3.106,14.854,7.72,19.794
		c5.154,5.521,13.131,17.651-0.772,17.165c-3.401-0.119-14.116-2.31-13.587-6.263c1.2-8.951-3.014-11.616-10.267-16.005
		c-5.66-3.425-5.172-4.759-5.172-11.057c0-5.503-1.855-10.828-1.312-16.469c0-6.472,2.103-11.672,4.014-17.629
		c1.731-5.393,2.27-12.121,5.866-16.624c9.158-11.467,1.623-20.21-5.635-30.154c-3.087-9.286,3.504-7.263,7.102-11.985
		c4.156-5.453-0.44-13.568,4.169-17.396c3.083-2.561,4.677-6.451,6.253-9.974c2.315-5.178-2.403-12.704-3.01-17.706
		c-1.564-5.89-5.199-10.433-6.484-16.16c-1.198-5.337-1.467-10.403-1.467-15.928c0-10.75-9.441-18.668-13.2-28.067
		c-0.962-2.405-0.477-5.571-1.235-7.887c-1.348,0.339-1.498,11.36-0.54,12.912c1.809,2.935,4.628,5.047,6.639,7.964
		c4.042,5.865,7.058,17.584,6.484,24.819c-0.714,15.172,20.533,33.21,5.095,47.938c-5.389,5.14-3.12,9.462-6.021,15.077
		c-2.283,4.577-9.572,6.303-8.568,12.603c0.99,6.214,4.462,8.96,7.642,13.686c6.541,9.72-2.655,17.657-5.249,27.37
		c-2.135,7.998-1.958,16.201-9.341,7.577c-1.339-1.564,1.768-4.926,2.47-6.417c5.896-12.518-0.095-19.774-5.404-30.541
		c-2.821-5.723-5.25-13.77-5.789-20.103c2.539-7.64,4.478-14.009,0.308-21.34c-3.837-6.747-13.14-10.888-9.572-19.406
		c1.748-4.174,1.775-10.896,1.775-15.464c0-1.572,0.22-3.624-0.849-4.871c-0.954-1.115-1.831-1.771-2.394-3.17
		c-1.371-3.404-1.581-5.553-0.617-9.201c0.424-1.603,1.806-3.22-0.386-4.098c-2.765-1.107-2.673-3.445-2.547-6.108
		c0.225-4.768,0.719-4.587-3.397-7.577c-1.087-0.79-2.36-3.516-2.239-0.078c0.094,2.654,2.105,2.926,3.011,5.103
		c0.956,2.297,0.81,3.93,0.154,6.263c-0.25,5.067,1.807,6.96,2.162,11.443c0.378,4.769-0.152,9.655,1.081,14.304
		c0.843,3.18,3.143,5.862,3.242,9.278c0.139,4.821-4.786,7.829-4.786,11.521c0,4.253,8.539,6.077,9.881,10.515
		c0.821,3.282,3.77,5.96,4.941,9.046c0.761,2.007-2.013,7.023-3.705,8.273c-0.962,0.711-5.844,2.984-3.551,3.944
		c6.763,2.828,1.752,26.598,6.716,26.598c2.221,0,3.658-1.349,5.095,1.237c0.972,1.75,1.615,6.249,1.312,8.196
		c0.589,3.944,2.933,7.187,2.933,10.825c0,9.533-5.439,1.558-8.028,2.784c-2.778,1.314,5.658,23.142,6.484,26.366
		c1.853,7.226,2.82,11.829-5.944,11.829c-3.496,0-3.124-0.618-4.864-3.633c-1.546-2.677-0.886-5.573-4.169-7.036
		c-4.007-1.785-3.466-6.764-2.779-10.361c1.016-5.318-0.497-8.211-0.308-13.067c0.119-3.063,5.114-12.544-0.077-7.346
		c-4.586,4.594,0.835,11.415,0,16.238c-0.501,2.894-3.428,6.514-2.625,9.432c0.91,3.304,2.57,6.289,5.481,8.196
		c5.081,3.327,1.379,2.653,3.01,7.268c1.184,3.347,6.257,2.087,5.25,5.567c-0.37,1.277-4.222,9.991-4.632,10.129
		c0.057-0.173,0.046-0.207,0.077-0.387c-1.344,5.051,4.621,8.34,3.088,14.304c-1.285,5.004-6.267,9.449-9.881,13.067
		c-1.388,1.391-1.419,3.219-2.547,4.407c-2.527,2.66-6.176,4.949-9.341,1.778c-4.132-4.141-5.683-7.378-6.639-13.376
		c-0.551-3.459-2.485-6.587-2.239-10.051c5.289-5.304,4.574-11.603,7.411-18.016c3.124-7.065,3.751-11.935-2.393-17.396
		c-3.156-2.805-1.996-12.193-3.088-16.469c-0.748-2.925,0.824-5.841,0.617-8.583c4.443-6.11,11.487-8.736,6.87-17.01
		c-0.95-1.702,0.532-5.47,2.316-6.263c2.318-1.03,5.847-5.399,5.25-7.809c-3.906,0-3.402,6.108-6.948,6.108
		c-0.453,1.367-2.583,5.954-4.323,5.954c-3.24,0-5.079-5.514-7.334-4.948c0,4.026,2.903,5.268,5.095,7.964
		c0.825,1.238,5.98,3.555,5.713,4.948c-0.488,2.545-4.465,6.154-6.561,7.577c-6.974,4.733-3.011,12.672-3.011,19.252
		c0,2.768-2.394-0.645-2.856-1.237c-0.847-1.524-1.316-3.16-2.162-4.639c-1.301-2.274-3.192-4.029-4.555-6.341
		c-1.697-2.88-2.274-5.386-3.473-8.428c0.714-2.149,3.836-6.79,2.547-8.969c-1.958-3.308-7.818,0.889-7.951-2.397
		c-0.284-6.997,4.339-13.655,8.723-18.634c0.948-1.077,4.474-3.62,4.786-4.562c0.267-0.808-2.368-2.237-2.47-3.943
		c-0.266-4.458-1.926,1.434-2.162,2.397c-0.832,3.403-2.685,3.363-4.632,5.799c-3.794,3.042-6.274,10.455-7.642,15.077
		c-2.076,7.015,7.256,7.174,7.256,9.278c0,2.968-4.18,3.47-2.702,8.273c0.94,3.052,3.7,6.03,5.327,8.892l7.874,13.84
		c0.601,2.865,3.358,4.643,5.095,6.804c1.476,1.835,1.064,3.653,1.389,5.876c0.94,6.413-3.588,6.058-6.793,9.51
		c-2.539,2.736-4.227,4.765-5.327,8.505c-1.103,3.747-3.38,12.243-4.555,3.402c-0.334-2.517,0.663-5.023-1.003-7.113
		c-1.831-2.297,0.453-5.812,1.544-7.886c0.864-1.645-0.284-3.497,0.54-5.103c-2.013-4.542-6.854,0.415-9.727-4.562
		c-2.116-3.666-8.007-1.27-7.411-6.495c0.326-2.857,2.698-3.757,4.246-5.567c3.793-4.439-0.067-4.395-3.319-6.65
		c-3.359-2.328,1.45-9.229,3.011-11.752c4.442-7.183-0.694-10.99-5.25-16.701c-1.773-2.223-0.547,2.655-0.463,3.015
		c0.756,3.23,4.786,6.131,4.786,9.511c0,3.879-6.999,11.474-5.636,13.917c1.268,2.274,3.487,3.729,4.632,5.954
		c0.825,6.552-10.036,3.414-7.411,10.283c2.05,5.365,8.863,2.234,11.117,6.495c2.362,4.466,2.819,3.761,7.256,4.871
		c3.584,0.897-1.096,7.624-1.621,10.361c-0.316,1.649,0,4.013,0,5.721c0,3.685,1.424,5.653,2.084,8.969
		c0.341,2.903,2.756,5.525,3.397,8.428c0.521,2.358,0.567,4.98,0.308,7.422c-0.599,5.658-1.744,10.349-0.385,15.851
		c0.741,2.998,0.295,4.693-2.162,6.572c-3.9,2.982-9.064,3.087-13.895,3.634c-2.651,0.301-4.453,0.585-3.937-2.629
		c0.263-1.637,1.182-4.655,1.776-6.263c1.631-4.423,3.028-2.738,1.312-7.036c-0.786-1.967-0.772-3.181-0.772-5.335
		c0-2.453-1.575-5.018-1.389-7.19c-3.297-4.544-7.212-8.379-6.33-14.536l2.085-14.536c0.495-3.457,3.096-6.379,4.091-9.819
		c1.969-6.798-7.56-4.54-11.348-4.871c-4.638-0.406-4.159-2.119-7.334-4.639c-2.114-8.506,8.325-8.144,7.951-16.083
		c-0.073-1.553-0.258-4.299,2.162-3.865c1.597,0.286,5.494,4.533,5.018,1.933c-0.489-2.673-5.285-4.84-7.643-5.335
		c-7.761-1.629,0.32-4.982,0.849-8.273c0.808-5.027-11.579-9.203-11.579-16.16c0-1.867,0.237-4.208-2.316-2.629
		c-4.549,2.813,2.568,7.613,3.937,9.432c1.455,1.933,9.502,8.441,5.789,10.67c-2.892,1.737-2.513,3.881-3.937,6.417
		c0.112,0.913,2.263,2.365,2.933,3.093c0.932,1.011,1.246,2.716,1.467,4.02c0.552,3.266-2.882,6.86-5.405,8.428
		c-6.403,3.674-3.51,11.72,1.235,15c2.881,1.991,8.752,0.377,12.197,1.237c0.84,3.374-0.772,4.995-0.772,8.042
		c-0.457,0.152-1.075,4.771-1.235,5.412l-1.698,6.804c-0.693,2.773-0.688,11.313-3.551,11.753c-2.913,0.448-6.836-3.334-9.418-4.794
		c-3.551-2.008-6.497-13.583-5.867-17.165c-1.962-5.903-7.208-11.176-5.712-17.474c1.331-5.608,4.062-9.655,4.478-16.082
		c0.696-10.77-18.087-19.936-8.955-29.846C292.049,1276.518,292.641,1274.922,292.437,1273.621L292.437,1273.621L292.437,1273.621z"
		/>
	<circle fill="#F42A41" cx="494.934" cy="735.174" r="182.696"/>
</g>
</svg>
