<svg xmlns="http://www.w3.org/2000/svg" version="1.1" xmlns:xlink="http://www.w3.org/1999/xlink" xmlns:svgjs="http://svgjs.com/svgjs" width="1440" height="560" preserveAspectRatio="none" viewBox="0 0 1440 560"><g mask="url(&quot;#SvgjsMask1190&quot;)" fill="none"><rect width="1440" height="560" x="0" y="0" fill="rgba(255, 255, 255, 1)"></rect><path d="M1512 560L0 560 L0 143.32Q84.18 155.5, 72 239.67Q66.02 161.69, 144 155.7Q196.04 87.74, 264 139.78Q289.67 93.45, 336 119.13Q436.3 99.43, 456 199.72Q490.74 114.46, 576 149.2Q618.35 71.54, 696 113.89Q743.63 89.51, 768 137.14Q857.07 106.21, 888 195.28Q913.33 148.61, 960 173.94Q1046.04 139.98, 1080 226.02Q1147.66 173.68, 1200 241.34Q1255.97 225.31, 1272 281.28Q1282.74 172.01, 1392 182.75Q1429.28 100.03, 1512 137.3z" fill="rgba(255, 228, 228, 1)"></path><path d="M1536 560L0 560 L0 384.26Q17.89 282.15, 120 300.04Q169.68 229.72, 240 279.4Q344.45 263.85, 360 368.3Q404.52 340.82, 432 385.34Q435.88 269.21, 552 273.09Q610.78 259.88, 624 318.66Q678.13 252.8, 744 306.93Q774.72 265.65, 816 296.37Q912.82 273.19, 936 370.01Q1014.28 328.29, 1056 406.58Q1128.92 359.5, 1176 432.43Q1194.5 330.93, 1296 349.43Q1325.15 258.59, 1416 287.74Q1482.35 234.09, 1536 300.43z" fill="rgba(206, 255, 216, 1)"></path><path d="M1488 560L0 560 L0 506.52Q-9.01 425.51, 72 416.5Q127.87 400.37, 144 456.24Q227.58 467.82, 216 551.4Q192.76 456.16, 288 432.93Q408.26 433.19, 408 553.45Q452.2 525.65, 480 569.85Q502.13 471.98, 600 494.1Q598.41 420.51, 672 418.93Q761.22 388.15, 792 477.37Q888.98 454.35, 912 551.33Q929.63 448.96, 1032 466.58Q1075.83 438.41, 1104 482.24Q1117.03 423.26, 1176 436.29Q1217.88 406.18, 1248 448.06Q1340.29 420.35, 1368 512.64Q1420.77 445.41, 1488 498.18z" fill="rgba(255, 255, 255, 1)"></path></g><defs><mask id="SvgjsMask1190"><rect width="1440" height="560" fill="#ffffff"></rect></mask></defs></svg>