<svg id="enebiH1rulq1" xmlns="http://www.w3.org/2000/svg" xmlns:xlink="http://www.w3.org/1999/xlink" viewBox="0 0 1910.1 469.7" shape-rendering="geometricPrecision" text-rendering="geometricPrecision"><style><![CDATA[#enebiH1rulq2_to {animation: enebiH1rulq2_to__to 5000ms linear infinite normal forwards}@keyframes enebiH1rulq2_to__to { 0% {transform: translate(130.581713px,114.449994px)} 4% {transform: translate(130.581713px,114.449994px)} 8% {transform: translate(130.581713px,114.449994px)} 12% {transform: translate(131.643775px,355.10335px)} 16% {transform: translate(131.643775px,355.10335px)} 20% {transform: translate(131.643775px,355.10335px)} 24% {transform: translate(131.643775px,355.10335px)} 28% {transform: translate(130.581713px,114.449994px)} 100% {transform: translate(130.581713px,114.449994px)}} #enebiH1rulq3_to {animation: enebiH1rulq3_to__to 5000ms linear infinite normal forwards}@keyframes enebiH1rulq3_to__to { 0% {transform: translate(339.25px,234.499992px)} 4% {transform: translate(131.643775px,355.10335px)} 8% {transform: translate(131.643775px,355.10335px)} 12% {transform: translate(130.581713px,114.449994px)} 16% {transform: translate(130.581713px,114.449994px)} 20% {transform: translate(339.25px,234.499992px)} 24% {transform: translate(339.25px,234.499992px)} 28% {transform: translate(339.25px,234.499992px)} 100% {transform: translate(339.25px,234.499992px)}} #enebiH1rulq4_to {animation: enebiH1rulq4_to__to 5000ms linear infinite normal forwards}@keyframes enebiH1rulq4_to__to { 0% {transform: translate(131.643842px,355.200012px)} 4% {transform: translate(339.25px,234.499992px)} 8% {transform: translate(339.25px,234.499992px)} 12% {transform: translate(339.25px,234.499992px)} 16% {transform: translate(339.25px,234.499992px)} 20% {transform: translate(130.581713px,114.449994px)} 24% {transform: translate(130.581713px,114.449994px)} 28% {transform: translate(131.643775px,355.10335px)} 100% {transform: translate(131.643775px,355.10335px)}} #enebiH1rulq5_tr {animation: enebiH1rulq5_tr__tr 5000ms linear infinite normal forwards}@keyframes enebiH1rulq5_tr__tr { 0% {transform: translate(591.874451px,233.549995px) rotate(0deg)} 28% {transform: translate(591.874451px,233.549995px) rotate(0deg)} 30% {transform: translate(591.874451px,233.549995px) rotate(-9.528065deg)} 32% {transform: translate(591.874451px,233.549995px) rotate(11.815958deg)} 34% {transform: translate(591.874451px,233.549995px) rotate(-5.002051deg)} 36% {transform: translate(591.874451px,233.549995px) rotate(8.565515deg)} 38% {transform: translate(591.874451px,233.549995px) rotate(-2.745258deg)} 40% {transform: translate(591.874451px,233.549995px) rotate(0deg)} 100% {transform: translate(591.874451px,233.549995px) rotate(0deg)}} #enebiH1rulq6_tr {animation: enebiH1rulq6_tr__tr 5000ms linear infinite normal forwards}@keyframes enebiH1rulq6_tr__tr { 0% {transform: translate(798.137207px,255.700005px) rotate(0deg)} 32% {transform: translate(798.137207px,255.700005px) rotate(0deg)} 34% {transform: translate(798.137207px,255.700005px) rotate(0deg)} 36% {transform: translate(798.137207px,255.700005px) rotate(11.815958deg)} 38% {transform: translate(798.137207px,255.700005px) rotate(-5.002051deg)} 40% {transform: translate(798.137207px,255.700005px) rotate(8.565515deg)} 42% {transform: translate(798.137207px,255.700005px) rotate(-2.745258deg)} 44% {transform: translate(798.137207px,255.700005px) rotate(0deg)} 100% {transform: translate(798.137207px,255.700005px) rotate(0deg)}} #enebiH1rulq7_to {animation: enebiH1rulq7_to__to 5000ms linear infinite normal forwards}@keyframes enebiH1rulq7_to__to { 0% {transform: translate(1639.787109px,255.700005px)} 56% {transform: translate(1639.787109px,255.700005px)} 60% {transform: translate(1639.787109px,191.700005px)} 62% {transform: translate(1639.787109px,255.700005px)} 64% {transform: translate(1639.787109px,224.700005px)} 66% {transform: translate(1639.787109px,255.700005px)} 68% {transform: translate(1639.787109px,239.700005px)} 70% {transform: translate(1639.787109px,255.700005px)} 100% {transform: translate(1639.787109px,255.700005px)}} #enebiH1rulq8_tr {animation: enebiH1rulq8_tr__tr 5000ms linear infinite normal forwards}@keyframes enebiH1rulq8_tr__tr { 0% {transform: translate(937.563354px,225.599998px) rotate(0deg)} 36% {transform: translate(937.563354px,225.599998px) rotate(0deg)} 38% {transform: translate(937.563354px,225.599998px) rotate(-9.528065deg)} 40% {transform: translate(937.563354px,225.599998px) rotate(11.815958deg)} 42% {transform: translate(937.563354px,225.599998px) rotate(-5.002051deg)} 44% {transform: translate(937.563354px,225.599998px) rotate(8.565515deg)} 46% {transform: translate(937.563354px,225.599998px) rotate(-2.745258deg)} 48% {transform: translate(937.563354px,225.599998px) rotate(0deg)} 100% {transform: translate(937.563354px,225.599998px) rotate(0deg)}} #enebiH1rulq9_tr {animation: enebiH1rulq9_tr__tr 5000ms linear infinite normal forwards}@keyframes enebiH1rulq9_tr__tr { 0% {transform: translate(1027.599152px,225.599998px) rotate(0deg)} 40% {transform: translate(1027.599152px,225.599998px) rotate(0deg)} 42% {transform: translate(1027.599152px,225.599998px) rotate(-9.528065deg)} 44% {transform: translate(1027.599152px,225.599998px) rotate(11.815958deg)} 46% {transform: translate(1027.599152px,225.599998px) rotate(-5.002051deg)} 48% {transform: translate(1027.599152px,225.599998px) rotate(8.565515deg)} 50% {transform: translate(1027.599152px,225.599998px) rotate(-2.745258deg)} 52% {transform: translate(1027.599152px,225.599998px) rotate(0deg)} 100% {transform: translate(1027.599152px,225.599998px) rotate(0deg)}} #enebiH1rulq10_tr {animation: enebiH1rulq10_tr__tr 5000ms linear infinite normal forwards}@keyframes enebiH1rulq10_tr__tr { 0% {transform: translate(1159.946655px,255.799957px) rotate(0deg)} 44% {transform: translate(1159.946655px,255.799957px) rotate(0deg)} 46% {transform: translate(1159.946655px,255.799957px) rotate(-9.528065deg)} 48% {transform: translate(1159.946655px,255.799957px) rotate(11.815958deg)} 50% {transform: translate(1159.946655px,255.799957px) rotate(-5.002051deg)} 52% {transform: translate(1159.946655px,255.799957px) rotate(8.565515deg)} 54% {transform: translate(1159.946655px,255.799957px) rotate(-2.745258deg)} 56% {transform: translate(1159.946655px,255.799957px) rotate(0deg)} 100% {transform: translate(1159.946655px,255.799957px) rotate(0deg)}} #enebiH1rulq11_to {animation: enebiH1rulq11_to__to 5000ms linear infinite normal forwards}@keyframes enebiH1rulq11_to__to { 0% {transform: translate(1395.178345px,255.799988px)} 50% {transform: translate(1395.178345px,255.799988px)} 54% {transform: translate(1395.178345px,191.799988px)} 56% {transform: translate(1395.178345px,255.799988px)} 58% {transform: translate(1395.178345px,224.799988px)} 60% {transform: translate(1395.178345px,255.799988px)} 62% {transform: translate(1395.178345px,239.799988px)} 64% {transform: translate(1395.178345px,255.799988px)} 100% {transform: translate(1395.178345px,255.799988px)}} #enebiH1rulq12_to {animation: enebiH1rulq12_to__to 5000ms linear infinite normal forwards}@keyframes enebiH1rulq12_to__to { 0% {transform: translate(1823.603333px,225.805565px)} 62% {transform: translate(1823.603333px,225.805565px)} 66% {transform: translate(1823.603333px,161.805565px)} 68% {transform: translate(1823.603333px,225.805565px)} 70% {transform: translate(1823.603333px,194.805565px)} 72% {transform: translate(1823.603333px,225.805565px)} 74% {transform: translate(1823.603333px,209.805565px)} 76% {transform: translate(1823.603333px,225.805565px)} 100% {transform: translate(1823.603333px,225.805565px)}}]]></style><defs><linearGradient id="enebiH1rulq2-fill" x1="-134.20443" y1="-69.977156" x2="292.43637" y2="227.152244" spreadMethod="pad" gradientUnits="userSpaceOnUse"><stop id="enebiH1rulq2-fill-0" offset="0%" stop-color="rgb(21,167,255)"/><stop id="enebiH1rulq2-fill-1" offset="51%" stop-color="rgb(27,180,255)"/><stop id="enebiH1rulq2-fill-2" offset="99%" stop-color="rgb(42,215,255)"/></linearGradient><linearGradient id="enebiH1rulq3-fill" x1="44.801676" y1="29.439204" x2="471.046676" y2="326.286404" spreadMethod="pad" gradientUnits="userSpaceOnUse"><stop id="enebiH1rulq3-fill-0" offset="0%" stop-color="rgb(255,93,21)"/><stop id="enebiH1rulq3-fill-1" offset="99%" stop-color="rgb(255,112,21)"/></linearGradient><linearGradient id="enebiH1rulq4-fill" x1="0.4804" y1="343.5051" x2="321.1705" y2="372.0952" spreadMethod="pad" gradientUnits="userSpaceOnUse"><stop id="enebiH1rulq4-fill-0" offset="21%" stop-color="rgb(8,191,0)"/><stop id="enebiH1rulq4-fill-1" offset="76%" stop-color="rgb(0,191,92)"/></linearGradient><linearGradient id="enebiH1rulq5-fill" x1="426.3507" y1="140.1188" x2="1121.5366" y2="515.3652" spreadMethod="pad" gradientUnits="userSpaceOnUse"><stop id="enebiH1rulq5-fill-0" offset="0%" stop-color="rgb(21,167,255)"/><stop id="enebiH1rulq5-fill-1" offset="99%" stop-color="rgb(42,215,255)"/></linearGradient><linearGradient id="enebiH1rulq6-fill" x1="459.9829" y1="76.5778" x2="1153.4583" y2="450.8889" spreadMethod="pad" gradientUnits="userSpaceOnUse"><stop id="enebiH1rulq6-fill-0" offset="0%" stop-color="rgb(21,167,255)"/><stop id="enebiH1rulq6-fill-1" offset="99%" stop-color="rgb(42,215,255)"/></linearGradient><linearGradient id="enebiH1rulq7-fill" x1="1301.6452" y1="76.5628" x2="1995.1205" y2="450.874" spreadMethod="pad" gradientUnits="userSpaceOnUse"><stop id="enebiH1rulq7-fill-0" offset="0%" stop-color="rgb(255,93,21)"/><stop id="enebiH1rulq7-fill-1" offset="99%" stop-color="rgb(255,112,21)"/></linearGradient><linearGradient id="enebiH1rulq8-fill" x1="502.263" y1="-3.4216" x2="1192.8009" y2="369.3089" spreadMethod="pad" gradientUnits="userSpaceOnUse"><stop id="enebiH1rulq8-fill-0" offset="0%" stop-color="rgb(21,167,255)"/><stop id="enebiH1rulq8-fill-1" offset="99%" stop-color="rgb(42,215,255)"/></linearGradient><linearGradient id="enebiH1rulq9-fill" x1="527.0082" y1="-39.2108" x2="1205.64" y2="327.1001" spreadMethod="pad" gradientUnits="userSpaceOnUse"><stop id="enebiH1rulq9-fill-0" offset="0%" stop-color="rgb(21,167,255)"/><stop id="enebiH1rulq9-fill-1" offset="99%" stop-color="rgb(42,215,255)"/></linearGradient><linearGradient id="enebiH1rulq10-fill" x1="511.7512" y1="-94.1608" x2="1230.7312" y2="293.9292" spreadMethod="pad" gradientUnits="userSpaceOnUse"><stop id="enebiH1rulq10-fill-0" offset="0%" stop-color="rgb(21,167,255)"/><stop id="enebiH1rulq10-fill-1" offset="99%" stop-color="rgb(42,215,255)"/></linearGradient><linearGradient id="enebiH1rulq11-fill" x1="1247.8864" y1="255.7801" x2="1542.4862" y2="255.7801" spreadMethod="pad" gradientUnits="userSpaceOnUse"><stop id="enebiH1rulq11-fill-0" offset="0%" stop-color="rgb(255,93,21)"/><stop id="enebiH1rulq11-fill-1" offset="99%" stop-color="rgb(255,112,21)"/></linearGradient><linearGradient id="enebiH1rulq12-fill" x1="1737.11" y1="225.7989" x2="1910.1174" y2="225.7989" spreadMethod="pad" gradientUnits="userSpaceOnUse"><stop id="enebiH1rulq12-fill-0" offset="0%" stop-color="rgb(255,93,21)"/><stop id="enebiH1rulq12-fill-1" offset="99%" stop-color="rgb(255,112,21)"/></linearGradient></defs><g id="enebiH1rulq2_to" transform="translate(130.581713,114.449994)"><path id="enebiH1rulq2" d="M260,109.8L198.7,4.2C197.3,1.5,194.4,-0.1,191.4,0L69.3,0.3C66.3,0.3,63.4,2,61.9,4.6L1.1,110.6C-0.4,113.2,-0.4,116.5,1.2,119.1L62.5,224.7C63.9,227.4,66.8,229,69.8,228.9L191.9,228.5C194.9,228.5,197.8,226.8,199.3,224.2L260.1,118.2C261.6,115.6,261.5,112.4,260,109.8Z" transform="translate(-130.581713,-114.449994)" fill="url(#enebiH1rulq2-fill)" stroke="none" stroke-width="1" stroke-miterlimit="1"/></g><g id="enebiH1rulq3_to" transform="translate(339.25,234.499992)"><path id="enebiH1rulq3" d="M468,228.7L408,125.5C406.1,122.1,402.5,120,398.6,120.1L279.3,120.4C275.4,120.4,271.8,122.5,269.9,125.9L210.5,229.4C208.6,232.8,208.6,236.9,210.5,240.3L270.5,343.5C272.4,346.9,276,349,279.9,348.9L399.2,348.6C403.1,348.6,406.7,346.5,408.6,343.1L468,239.6C469.9,236.2,469.9,232.1,468,228.7Z" transform="translate(-339.25,-234.499992)" fill="url(#enebiH1rulq3-fill)" stroke="none" stroke-width="1" stroke-miterlimit="1"/></g><g id="enebiH1rulq4_to" transform="translate(131.643842,355.200012)"><path id="enebiH1rulq4" d="M259.1,347.1L201.8,248.4C199,243.7,194,240.7,188.5,240.7L74.5,241C69,241,63.9,243.9,61.2,248.7L4.2,347.9C1.5,352.7,1.5,358.5,4.2,363.3L61.5,462C64.3,466.7,69.3,469.7,74.8,469.7L188.9,469.4C194.4,469.4,199.5,466.5,202.2,461.7L259,362.7C261.8,357.9,261.8,352,259.1,347.1Z" transform="translate(-131.643842,-355.200012)" fill="url(#enebiH1rulq4-fill)" stroke="none" stroke-width="1" stroke-miterlimit="1"/></g><g id="enebiH1rulq5_tr" transform="translate(591.874451,233.549995) rotate(0)"><path id="enebiH1rulq5" d="M691.3,131.8C691.3,148,678.2,161.1,662,161.1L521.3,161.1C519.9,161.1,519.2,161.8,519.2,163.3L519.2,303.8C519.2,305.3,519.9,306,521.3,306L686.7,306C689.3,306,691.4,307.9,691.7,310.5C692.8,322.7,695.8,332.4,702,339.7C704.8,343,702.6,348,698.3,348L521.3,348C509.9,348,500.3,343.7,492.4,335.1C484.5,326.5,480.5,316.1,480.5,303.8L480.5,163.3C480.5,151,484.5,140.6,492.4,132C500.3,123.4,510,119.1,521.3,119.1L686.3,119.1C689.1,119.1,691.3,121.3,691.3,124.1L691.3,131.8Z" transform="translate(-591.874451,-233.549995)" fill="url(#enebiH1rulq5-fill)" stroke="none" stroke-width="1" stroke-miterlimit="1"/></g><g id="enebiH1rulq6_tr" transform="translate(798.137207,255.700005) rotate(0)"><path id="enebiH1rulq6" d="M837.9,163.6C849.1,163.6,858.6,167.9,866.5,176.5C874.3,184.9,878.6,196,878.4,207.5L878.4,271.8C878.4,274.6,876.2,276.8,873.4,276.8L748.9,276.8C746.1,276.8,743.9,279,743.9,281.8L743.9,304.1C743.9,305.6,744.6,306.3,746,306.3L873.7,306.3C876.3,306.3,878.4,308.3,878.7,310.8C879.7,321.6,883.8,332.6,889.7,339.9C892.3,343.1,889.9,348,885.8,348L746,347.9C734.8,347.9,725.3,343.6,717.4,335C709.6,326.6,705.3,315.5,705.5,304L705.5,207.3C705.3,195.8,709.6,184.7,717.4,176.3C725.3,167.7,734.9,163.4,746,163.4L837.9,163.4L837.9,163.6ZM743.9,234.9L834.9,234.9C837.7,234.9,839.9,232.7,839.9,229.9L839.9,207.6C839.9,206.1,839.2,205.4,837.8,205.4L745.9,205.4C744.5,205.4,743.8,206.1,743.8,207.6L743.9,234.9L743.9,234.9Z" transform="translate(-798.137207,-255.700005)" fill="url(#enebiH1rulq6-fill)" stroke="none" stroke-width="1" stroke-miterlimit="1"/></g><g id="enebiH1rulq7_to" transform="translate(1639.787109,255.700005)"><path id="enebiH1rulq7" d="M1679.5,163.6C1690.7,163.6,1700.2,167.9,1708.1,176.5C1715.9,184.9,1720.2,196,1720,207.5L1720,271.8C1720,274.6,1717.8,276.8,1715,276.8L1590.5,276.8C1587.7,276.8,1585.5,279,1585.5,281.8L1585.5,304.1C1585.5,305.6,1586.2,306.3,1587.6,306.3L1715.3,306.3C1717.9,306.3,1720,308.3,1720.3,310.8C1721.3,321.6,1725.4,332.6,1731.3,339.9C1733.9,343.1,1731.5,348,1727.4,348L1587.7,347.9C1576.5,347.9,1567,343.6,1559.1,335C1551.3,326.6,1547,315.5,1547.2,304L1547.2,207.3C1547,195.8,1551.3,184.7,1559.1,176.3C1567,167.7,1576.6,163.4,1587.7,163.4L1679.6,163.4L1679.5,163.6ZM1585.5,234.9L1676.5,234.9C1679.3,234.9,1681.5,232.7,1681.5,229.9L1681.5,207.6C1681.5,206.1,1680.8,205.4,1679.4,205.4L1587.5,205.4C1586.1,205.4,1585.4,206.1,1585.4,207.6L1585.5,234.9L1585.5,234.9Z" transform="translate(-1639.787109,-255.700005)" fill="url(#enebiH1rulq7-fill)" stroke="none" stroke-width="1" stroke-miterlimit="1"/></g><g id="enebiH1rulq8_tr" transform="translate(937.563354,225.599998) rotate(0)"><path id="enebiH1rulq8" d="M893.5,103.2L927.3,103.2C930.1,103.2,932.3,105.4,932.3,108.2L932.3,304.1C932.3,305.6,932.9,306.3,934.1,306.3L963.4,305.9C966,305.9,968.2,307.9,968.4,310.5C969.6,324.5,975.1,333.8,980.4,339.7C983.2,342.9,980.9,348,976.6,348L934.1,348C922.9,348,913.4,343.7,905.5,335.1C897.7,326.7,893.4,315.6,893.6,304.1L893.5,103.2L893.5,103.2Z" transform="translate(-937.563354,-225.599998)" fill="url(#enebiH1rulq8-fill)" stroke="none" stroke-width="1" stroke-miterlimit="1"/></g><g id="enebiH1rulq9_tr" transform="translate(1027.599152,225.599998) rotate(0)"><path id="enebiH1rulq9" d="M989.6,103.2L1018.4,103.2C1021.2,103.2,1023.4,105.4,1023.4,108.2L1023.4,304.1C1023.4,305.6,1024,306.3,1025.2,306.3L1053.9,306.3C1056.6,306.3,1058.8,308.4,1058.9,311.1C1059.5,324.8,1064.6,334,1069.5,339.8C1072.3,343,1069.9,348,1065.6,348L1025,347.9C1013.8,347.9,1004.3,343.6,996.4,335C988.6,326.6,984.3,315.5,984.5,304L984.5,108.2C984.6,105.4,986.8,103.2,989.6,103.2Z" transform="translate(-1027.599152,-225.599998)" fill="url(#enebiH1rulq9-fill)" stroke="none" stroke-width="1" stroke-miterlimit="1"/></g><g id="enebiH1rulq10_tr" transform="translate(1159.946655,255.799957) rotate(0)"><path id="enebiH1rulq10" d="M1246.1,199.9C1246.4,202.8,1244.1,205.4,1241.1,205.4L1113.9,205.3C1112.5,205.3,1111.8,206,1111.8,207.5L1111.8,232.9C1111.8,234.2,1112.5,234.8,1113.9,234.8L1205.8,234.8C1217.2,234.8,1226.7,239.1,1234.6,247.7C1242.5,256.3,1246.3,266.6,1246.3,278.7L1246.3,304.1C1246.3,316.2,1242.4,326.5,1234.6,335.1C1226.8,343.7,1217.2,348,1205.8,348L1114,348C1102.8,348,1093.3,343.7,1085.4,335.1C1078.8,327.9,1074.9,321,1073.8,311.8C1073.5,308.9,1075.8,306.3,1078.8,306.3L1206,306.3C1207.4,306.3,1208.1,305.6,1208.1,304.1L1208.1,278.7C1208.1,277.4,1207.4,276.8,1206,276.8L1114.1,276.8C1102.9,276.8,1093.4,272.5,1085.5,263.9C1077.7,255.5,1073.4,244.4,1073.6,232.9L1073.6,207.5C1073.4,196,1077.7,184.9,1085.5,176.5C1093.4,167.9,1103,163.6,1114.1,163.6L1206,163.6C1217.4,163.6,1226.9,167.9,1234.8,176.5C1241.4,183.7,1245.1,190.7,1246.1,199.9Z" transform="translate(-1159.946655,-255.799957)" fill="url(#enebiH1rulq10-fill)" stroke="none" stroke-width="1" stroke-miterlimit="1"/></g><g id="enebiH1rulq11_to" transform="translate(1395.178345,255.799988)"><path id="enebiH1rulq11" d="M1498,171.9C1499.8,166.9,1504.5,163.6,1509.8,163.6L1537.5,163.6C1541.6,163.6,1544,168.3,1541.5,171.6C1537.4,177,1534.4,183.8,1532.6,189.2L1480.5,340.1C1478.9,344.8,1474.4,348,1469.4,348L1455.6,348C1450.8,348,1446.6,345.1,1444.7,340.8L1397.9,228.4C1397.5,227.5,1396.6,227.1,1395.7,227.5C1395.3,227.7,1395,228,1394.8,228.4L1350,340.6C1348.2,345.1,1343.8,348,1339,348L1325.5,348C1320.6,348,1316.2,344.9,1314.5,340.3L1258.4,187.2C1258.4,187.1,1258.3,187,1258.3,186.9C1256.2,182.1,1253.1,176.6,1249,171.8C1246.3,168.6,1248.6,163.6,1252.9,163.6L1282.4,163.6C1287.7,163.6,1292.4,166.8,1294.2,171.8L1296.6,178.2L1327.7,260.4C1329.3,264.7,1335.3,264.7,1337,260.5L1375,166.2C1375.6,164.7,1377.1,163.7,1378.7,163.7L1413.3,163.7C1414.9,163.7,1416.3,164.7,1416.9,166.1L1457.2,261.2C1459,265.4,1465,265.2,1466.5,260.9L1496.6,175.6L1498,171.9Z" transform="translate(-1395.178345,-255.799988)" fill="url(#enebiH1rulq11-fill)" stroke="none" stroke-width="1" stroke-miterlimit="1"/></g><g id="enebiH1rulq12_to" transform="translate(1823.603333,225.805565)"><path id="enebiH1rulq12" d="M1869.6,163.6C1880.8,163.6,1890.3,167.9,1898.2,176.5C1906,184.9,1910.3,196,1910.1,207.5L1910.1,304.2C1910.3,315.7,1906,326.8,1898.2,335.2C1890.3,343.8,1880.7,348.1,1869.6,348.1C1869.6,348.1,1784.6,348.8,1775.5,348.1C1757.5,346.8,1737.1,336.3,1737.1,299.8L1737.1,108.2C1737.1,105.4,1739.3,103.2,1742.1,103.2L1770.6,103.2C1773.4,103.2,1775.6,105.4,1775.6,108.2L1775.6,158.6C1775.6,161.4,1777.8,163.6,1780.6,163.6L1869.6,163.6ZM1871.6,304.2L1871.6,207.5C1871.6,206,1870.9,205.3,1869.5,205.3L1777.6,205.3C1776.2,205.3,1775.5,206,1775.5,207.5L1775.5,304.2C1775.5,305.7,1776.2,306.4,1777.6,306.4L1869.5,306.4C1870.9,306.4,1871.6,305.7,1871.6,304.2Z" transform="translate(-1823.603333,-225.805565)" fill="url(#enebiH1rulq12-fill)" stroke="none" stroke-width="1" stroke-miterlimit="1"/></g></svg>