<svg xmlns="http://www.w3.org/2000/svg" version="1.1" xmlns:xlink="http://www.w3.org/1999/xlink" xmlns:svgjs="http://svgjs.com/svgjs" width="1920" height="1080" preserveAspectRatio="none" viewBox="0 0 1920 1080"><g mask="url(&quot;#SvgjsMask1028&quot;)" fill="none"><rect width="1920" height="1080" x="0" y="0" fill="rgba(33, 0, 79, 1)"></rect><path d="M1610.3306349561637 87.45973337546573L1525.3273642357472 2.456462655049222 1440.3240935153306 172.4630040958823z" fill="rgba(69, 175, 255, 0.25)" class="triangle-float1"></path><path d="M1540.144578177038 366.00080089962853L1697.0455971251706 224.72648888427796 1555.77128510982 67.82546993614551 1398.8702661616876 209.09978195149606z" fill="rgba(69, 175, 255, 0.25)" class="triangle-float3"></path><path d="M1473.669,751.979C1520.518,752.172,1570.375,743.994,1596.015,704.784C1623.802,662.291,1621.759,607.256,1597.455,562.679C1572.033,516.052,1526.719,477.91,1473.669,480.38C1423.537,482.715,1392.203,529.187,1368.361,573.348C1346.07,614.635,1329.226,663.365,1353.054,703.784C1376.62,743.759,1427.265,751.788,1473.669,751.979" fill="rgba(69, 175, 255, 0.25)" class="triangle-float2"></path><path d="M1068.3128206647143 539.3565457976824L835.2905663837741 580.4446563329208 876.3786769190125 813.466910613861 1109.4009311999528 772.3788000786226z" fill="rgba(69, 175, 255, 0.25)" class="triangle-float2"></path><path d="M1178.335508057418 259.09617859289676L1325.0094032899958 358.02897012572413 1423.9421948228232 211.35507489314634 1277.2682995902455 112.42228336031897z" fill="rgba(69, 175, 255, 0.25)" class="triangle-float2"></path><path d="M734.4114764756373 848.1746480165046L692.7476737169468 1015.2790337396586 859.8520594401008 1056.9428364983492 901.5158621987913 889.8384507751952z" fill="rgba(69, 175, 255, 0.25)" class="triangle-float2"></path><path d="M186.8747106668662 703.1404488017477L335.95684976169764 519.0393391433773 2.773601008495916 554.0583097069162z" fill="rgba(69, 175, 255, 0.25)" class="triangle-float1"></path><path d="M871.8673765355197-43.18982011811621L627.281038453461 81.43314373334113 996.4903403869771 201.3965179639425z" fill="rgba(69, 175, 255, 0.25)" class="triangle-float1"></path><path d="M576.801,519.628C662.699,517.576,729.084,453.353,771.727,378.758C813.985,304.835,834.725,215.62,793.032,141.377C750.615,65.844,663.327,27.447,576.801,31.654C496.986,35.535,434.946,92.053,394.165,160.772C352.311,231.3,327.851,315.381,365.05,388.472C405.412,467.779,487.839,521.753,576.801,519.628" fill="rgba(69, 175, 255, 0.25)" class="triangle-float2"></path><path d="M438.4448781081972 858.1109886302136L365.5422240847232 694.368946778275 201.80018223278466 767.271600801749 274.7028362562586 931.0136426536875z" fill="rgba(69, 175, 255, 0.25)" class="triangle-float1"></path></g><defs><mask id="SvgjsMask1028"><rect width="1920" height="1080" fill="#ffffff"></rect></mask><style>
            @keyframes float1 {
                0%{transform: translate(0, 0)}
                50%{transform: translate(-10px, 0)}
                100%{transform: translate(0, 0)}
            }

            .triangle-float1 {
                animation: float1 5s infinite;
            }

            @keyframes float2 {
                0%{transform: translate(0, 0)}
                50%{transform: translate(-5px, -5px)}
                100%{transform: translate(0, 0)}
            }

            .triangle-float2 {
                animation: float2 4s infinite;
            }

            @keyframes float3 {
                0%{transform: translate(0, 0)}
                50%{transform: translate(0, -10px)}
                100%{transform: translate(0, 0)}
            }

            .triangle-float3 {
                animation: float3 6s infinite;
            }
        </style></defs></svg>